<mxfile host="65bd71144e">
    <diagram id="EtjEH7bIAB96WoI30rAG" name="Page-1">
        <mxGraphModel dx="1005" dy="783" grid="1" gridSize="10" guides="1" tooltips="1" connect="1" arrows="1" fold="1" page="1" pageScale="1" pageWidth="10000" pageHeight="10000" math="0" shadow="0">
            <root>
                <mxCell id="0"/>
                <mxCell id="1" parent="0"/>
                <mxCell id="2" value="&lt;div style=&quot;line-height: 19px;&quot;&gt;&lt;div style=&quot;font-family: Consolas, &amp;quot;Courier New&amp;quot;, monospace; font-size: 14px; white-space: pre; text-align: left;&quot;&gt;&lt;div style=&quot;line-height: 19px;&quot;&gt;&lt;font style=&quot;color: rgb(255, 255, 255);&quot;&gt;&lt;span style=&quot;background-color: light-dark(#ffffff, var(--ge-dark-color, #121212));&quot;&gt;&lt;font style=&quot;&quot;&gt;&lt;font style=&quot;&quot;&gt;&amp;lt;&lt;/font&gt;&lt;/font&gt;&lt;/span&gt;&lt;/font&gt;&lt;span style=&quot;color: rgb(63, 63, 63); background-color: transparent;&quot;&gt;template&amp;gt;&lt;/span&gt;&lt;/div&gt;&lt;div style=&quot;line-height: 19px;&quot;&gt;&lt;font style=&quot;color: rgb(255, 255, 255);&quot;&gt;&lt;span style=&quot;background-color: light-dark(#ffffff, var(--ge-dark-color, #121212));&quot;&gt;&lt;span style=&quot;line-height: 26px;&quot;&gt;&lt;font&gt;&lt;span style=&quot;line-height: 26px;&quot;&gt;&lt;font&gt;&lt;font&gt;&amp;lt;&lt;/font&gt;&lt;span style=&quot;line-height: 26px;&quot;&gt;&lt;font&gt;p&lt;/font&gt;&lt;/span&gt;&lt;font&gt;&amp;gt;&lt;/font&gt;&lt;/font&gt;&lt;/span&gt;&lt;font&gt;{{&amp;nbsp;doubleCount&amp;nbsp;}}&lt;/font&gt;&lt;span style=&quot;line-height: 26px;&quot;&gt;&amp;lt;/&lt;span style=&quot;line-height: 26px;&quot;&gt;p&lt;/span&gt;&amp;gt;&lt;/span&gt;&lt;/font&gt;&lt;/span&gt;&lt;font style=&quot;&quot;&gt;&lt;font&gt;&lt;br&gt;&amp;nbsp;&amp;nbsp;&lt;/font&gt;&lt;/font&gt;&lt;span style=&quot;line-height: 26px;&quot;&gt;&lt;span style=&quot;line-height: 26px;&quot;&gt;&amp;lt;&lt;span style=&quot;line-height: 26px;&quot;&gt;button&lt;/span&gt;&amp;nbsp;@&lt;span style=&quot;line-height: 26px;&quot;&gt;click&lt;/span&gt;=&lt;span style=&quot;line-height: 26px;&quot;&gt;&quot;flag&amp;nbsp;=&amp;nbsp;!flag&quot;&lt;/span&gt;&amp;gt;&lt;/span&gt;切换flag&lt;span style=&quot;line-height: 26px;&quot;&gt;&amp;lt;/&lt;span style=&quot;line-height: 26px;&quot;&gt;button&lt;/span&gt;&amp;gt;&lt;/span&gt;&lt;/span&gt;&lt;font style=&quot;&quot;&gt;&lt;br&gt;&amp;nbsp;&amp;nbsp;&lt;/font&gt;&lt;span style=&quot;line-height: 26px;&quot;&gt;&lt;span style=&quot;line-height: 26px;&quot;&gt;&amp;lt;&lt;span style=&quot;line-height: 26px;&quot;&gt;button&lt;/span&gt;&amp;nbsp;@&lt;span style=&quot;line-height: 26px;&quot;&gt;click&lt;/span&gt;=&lt;span style=&quot;line-height: 26px;&quot;&gt;&quot;count1++&quot;&lt;/span&gt;&amp;gt;&lt;/span&gt;&lt;font&gt;count1++&lt;/font&gt;&lt;span style=&quot;line-height: 26px;&quot;&gt;&amp;lt;/&lt;span style=&quot;line-height: 26px;&quot;&gt;button&lt;/span&gt;&amp;gt;&lt;/span&gt;&lt;/span&gt;&lt;font style=&quot;&quot;&gt;&lt;br&gt;&amp;nbsp;&amp;nbsp;&lt;/font&gt;&lt;span style=&quot;line-height: 26px;&quot;&gt;&lt;span style=&quot;line-height: 26px;&quot;&gt;&amp;lt;&lt;span style=&quot;line-height: 26px;&quot;&gt;button&lt;/span&gt;&amp;nbsp;@&lt;span style=&quot;line-height: 26px;&quot;&gt;click&lt;/span&gt;=&lt;span style=&quot;line-height: 26px;&quot;&gt;&quot;count2++&quot;&lt;/span&gt;&amp;gt;&lt;/span&gt;&lt;font&gt;count2++&lt;/font&gt;&lt;span style=&quot;line-height: 26px;&quot;&gt;&amp;lt;/&lt;span style=&quot;line-height: 26px;&quot;&gt;button&lt;/span&gt;&amp;gt;&lt;/span&gt;&lt;/span&gt;&lt;font style=&quot;&quot;&gt;&lt;br&gt;&amp;lt;&lt;/font&gt;&lt;/span&gt;&lt;span style=&quot;line-height: 26px;&quot;&gt;&lt;span style=&quot;background-color: light-dark(#ffffff, var(--ge-dark-color, #121212));&quot;&gt;/&lt;/span&gt;template&amp;gt;&lt;/span&gt;&lt;/font&gt;&lt;/div&gt;&lt;div style=&quot;line-height: 19px;&quot;&gt;&lt;font style=&quot;color: rgb(255, 255, 255);&quot;&gt;&lt;span style=&quot;line-height: 26px;&quot;&gt;&lt;br&gt;&amp;lt;script&amp;nbsp;setup&amp;gt;&lt;br&gt;import&amp;nbsp;{&amp;nbsp;computed,&amp;nbsp;ref&amp;nbsp;}&amp;nbsp;from&amp;nbsp;&quot;vue&quot;;&lt;br&gt;const&amp;nbsp;count1&amp;nbsp;=&amp;nbsp;ref(1);&lt;br&gt;const&amp;nbsp;count2&amp;nbsp;=&amp;nbsp;ref(10);&lt;br&gt;const&amp;nbsp;flag&amp;nbsp;=&amp;nbsp;ref(true);&lt;br&gt;&lt;br&gt;const&amp;nbsp;doubleCount&amp;nbsp;=&amp;nbsp;computed(()&amp;nbsp;=&amp;gt;&amp;nbsp;{&lt;br&gt;&amp;nbsp;&amp;nbsp;console.log(&quot;computed&quot;);&lt;br&gt;&amp;nbsp;&amp;nbsp;if&amp;nbsp;(flag.value)&amp;nbsp;{&lt;br&gt;&amp;nbsp;&amp;nbsp;&amp;nbsp;&amp;nbsp;return&amp;nbsp;count1.value&amp;nbsp;*&amp;nbsp;2;&lt;br&gt;&amp;nbsp;&amp;nbsp;}&amp;nbsp;else&amp;nbsp;{&lt;br&gt;&amp;nbsp;&amp;nbsp;&amp;nbsp;&amp;nbsp;return&amp;nbsp;count2.value&amp;nbsp;*&amp;nbsp;2;&lt;br&gt;&amp;nbsp;&amp;nbsp;}&lt;br&gt;});&lt;span style=&quot;background-color: rgb(0, 0, 0);&quot;&gt;&lt;br&gt;&lt;/span&gt;&amp;lt;/script&amp;gt;&lt;/span&gt;&lt;/font&gt;&lt;/div&gt;&lt;/div&gt;&lt;/div&gt;" style="whiteSpace=wrap;html=1;" parent="1" vertex="1">
                    <mxGeometry x="40" y="20" width="410" height="570" as="geometry"/>
                </mxCell>
                <mxCell id="5" value="Dep1(flag)" style="rounded=0;whiteSpace=wrap;html=1;" parent="1" vertex="1">
                    <mxGeometry x="1070" y="70" width="120" height="60" as="geometry"/>
                </mxCell>
                <mxCell id="6" style="edgeStyle=none;html=1;exitX=0.75;exitY=1;exitDx=0;exitDy=0;entryX=0.75;entryY=0;entryDx=0;entryDy=0;" parent="1" source="8" target="44" edge="1">
                    <mxGeometry relative="1" as="geometry"/>
                </mxCell>
                <mxCell id="7" value="subs" style="edgeLabel;html=1;align=center;verticalAlign=middle;resizable=0;points=[];" parent="6" vertex="1" connectable="0">
                    <mxGeometry x="-0.0918" y="-2" relative="1" as="geometry">
                        <mxPoint as="offset"/>
                    </mxGeometry>
                </mxCell>
                <mxCell id="8" value="Dep2(count1)" style="rounded=0;whiteSpace=wrap;html=1;" parent="1" vertex="1">
                    <mxGeometry x="1450" y="70" width="120" height="60" as="geometry"/>
                </mxCell>
                <mxCell id="9" style="edgeStyle=none;html=1;exitX=1;exitY=0.75;exitDx=0;exitDy=0;entryX=0;entryY=0.75;entryDx=0;entryDy=0;" parent="1" source="13" target="30" edge="1">
                    <mxGeometry relative="1" as="geometry"/>
                </mxCell>
                <mxCell id="10" value="deps" style="edgeLabel;html=1;align=center;verticalAlign=middle;resizable=0;points=[];" parent="9" vertex="1" connectable="0">
                    <mxGeometry x="0.0175" relative="1" as="geometry">
                        <mxPoint as="offset"/>
                    </mxGeometry>
                </mxCell>
                <mxCell id="11" style="edgeStyle=none;html=1;exitX=0.657;exitY=0.955;exitDx=0;exitDy=0;entryX=0.31;entryY=0.964;entryDx=0;entryDy=0;entryPerimeter=0;exitPerimeter=0;" parent="1" source="13" target="44" edge="1">
                    <mxGeometry relative="1" as="geometry">
                        <Array as="points">
                            <mxPoint x="819" y="430"/>
                            <mxPoint x="1130" y="430"/>
                            <mxPoint x="1487" y="430"/>
                        </Array>
                    </mxGeometry>
                </mxCell>
                <mxCell id="12" value="depsTail" style="edgeLabel;html=1;align=center;verticalAlign=middle;resizable=0;points=[];" parent="11" vertex="1" connectable="0">
                    <mxGeometry x="0.017" y="2" relative="1" as="geometry">
                        <mxPoint as="offset"/>
                    </mxGeometry>
                </mxCell>
                <mxCell id="13" value="Sub1(doubleCount)" style="rounded=0;whiteSpace=wrap;html=1;" parent="1" vertex="1">
                    <mxGeometry x="740" y="310" width="120" height="60" as="geometry"/>
                </mxCell>
                <mxCell id="14" style="edgeStyle=none;html=1;exitX=1;exitY=0.75;exitDx=0;exitDy=0;entryX=0;entryY=0.75;entryDx=0;entryDy=0;" parent="1" edge="1">
                    <mxGeometry relative="1" as="geometry">
                        <mxPoint x="870" y="635" as="sourcePoint"/>
                    </mxGeometry>
                </mxCell>
                <mxCell id="15" value="&lt;span style=&quot;color: rgb(0, 0, 0); font-size: 12px; background-color: rgb(251, 251, 251);&quot;&gt;deps&lt;/span&gt;" style="edgeLabel;html=1;align=center;verticalAlign=middle;resizable=0;points=[];" parent="14" vertex="1" connectable="0">
                    <mxGeometry x="-0.0967" y="-3" relative="1" as="geometry">
                        <mxPoint as="offset"/>
                    </mxGeometry>
                </mxCell>
                <mxCell id="16" style="edgeStyle=none;html=1;exitX=0.5;exitY=1;exitDx=0;exitDy=0;entryX=0.5;entryY=1;entryDx=0;entryDy=0;" parent="1" edge="1">
                    <mxGeometry relative="1" as="geometry">
                        <Array as="points">
                            <mxPoint x="810" y="700"/>
                            <mxPoint x="1130" y="700"/>
                            <mxPoint x="1510" y="700"/>
                        </Array>
                        <mxPoint x="810" y="650" as="sourcePoint"/>
                    </mxGeometry>
                </mxCell>
                <mxCell id="17" value="&lt;span style=&quot;color: rgb(0, 0, 0); font-size: 12px; background-color: rgb(251, 251, 251);&quot;&gt;depsTail&lt;/span&gt;" style="edgeLabel;html=1;align=center;verticalAlign=middle;resizable=0;points=[];" parent="16" vertex="1" connectable="0">
                    <mxGeometry x="0.0095" relative="1" as="geometry">
                        <mxPoint as="offset"/>
                    </mxGeometry>
                </mxCell>
                <mxCell id="19" value="" style="endArrow=classic;html=1;" parent="1" edge="1">
                    <mxGeometry width="50" height="50" relative="1" as="geometry">
                        <mxPoint x="710" y="50" as="sourcePoint"/>
                        <mxPoint x="1600" y="50" as="targetPoint"/>
                    </mxGeometry>
                </mxCell>
                <mxCell id="20" value="X轴&amp;nbsp; dep" style="text;html=1;align=center;verticalAlign=middle;resizable=0;points=[];autosize=1;strokeColor=none;fillColor=none;" parent="1" vertex="1">
                    <mxGeometry x="1165" y="10" width="70" height="30" as="geometry"/>
                </mxCell>
                <mxCell id="21" value="" style="endArrow=classic;html=1;" parent="1" edge="1">
                    <mxGeometry width="50" height="50" relative="1" as="geometry">
                        <mxPoint x="710" y="50" as="sourcePoint"/>
                        <mxPoint x="710" y="480" as="targetPoint"/>
                    </mxGeometry>
                </mxCell>
                <mxCell id="22" style="edgeStyle=none;html=1;exitX=0.5;exitY=0;exitDx=0;exitDy=0;entryX=0.5;entryY=1;entryDx=0;entryDy=0;" parent="1" edge="1">
                    <mxGeometry relative="1" as="geometry">
                        <mxPoint x="1110" y="310" as="sourcePoint"/>
                        <mxPoint x="1110" y="130" as="targetPoint"/>
                    </mxGeometry>
                </mxCell>
                <mxCell id="23" value="&lt;span style=&quot;color: rgb(0, 0, 0); font-size: 12px; background-color: rgb(251, 251, 251);&quot;&gt;dep&lt;/span&gt;" style="edgeLabel;html=1;align=center;verticalAlign=middle;resizable=0;points=[];" parent="22" vertex="1" connectable="0">
                    <mxGeometry x="0.0918" y="2" relative="1" as="geometry">
                        <mxPoint as="offset"/>
                    </mxGeometry>
                </mxCell>
                <mxCell id="24" style="edgeStyle=none;html=1;exitX=0;exitY=0.25;exitDx=0;exitDy=0;entryX=1;entryY=0.25;entryDx=0;entryDy=0;" parent="1" source="30" target="13" edge="1">
                    <mxGeometry relative="1" as="geometry"/>
                </mxCell>
                <mxCell id="25" value="&lt;span style=&quot;color: rgb(0, 0, 0); font-size: 12px; background-color: rgb(251, 251, 251);&quot;&gt;sub&lt;/span&gt;" style="edgeLabel;html=1;align=center;verticalAlign=middle;resizable=0;points=[];" parent="24" vertex="1" connectable="0">
                    <mxGeometry x="-0.1079" y="-2" relative="1" as="geometry">
                        <mxPoint as="offset"/>
                    </mxGeometry>
                </mxCell>
                <mxCell id="26" style="edgeStyle=none;html=1;exitX=1;exitY=0.75;exitDx=0;exitDy=0;entryX=0;entryY=0.75;entryDx=0;entryDy=0;" parent="1" source="30" target="44" edge="1">
                    <mxGeometry relative="1" as="geometry"/>
                </mxCell>
                <mxCell id="27" value="nextDep" style="edgeLabel;html=1;align=center;verticalAlign=middle;resizable=0;points=[];" parent="26" vertex="1" connectable="0">
                    <mxGeometry x="0.0244" y="-1" relative="1" as="geometry">
                        <mxPoint as="offset"/>
                    </mxGeometry>
                </mxCell>
                <mxCell id="30" value="link1" style="rounded=0;whiteSpace=wrap;html=1;" parent="1" vertex="1">
                    <mxGeometry x="1070" y="310" width="120" height="60" as="geometry"/>
                </mxCell>
                <mxCell id="31" style="edgeStyle=none;html=1;exitX=0;exitY=0.25;exitDx=0;exitDy=0;entryX=1;entryY=0.25;entryDx=0;entryDy=0;" parent="1" edge="1">
                    <mxGeometry relative="1" as="geometry">
                        <mxPoint x="870" y="605" as="targetPoint"/>
                    </mxGeometry>
                </mxCell>
                <mxCell id="32" value="sub" style="edgeLabel;html=1;align=center;verticalAlign=middle;resizable=0;points=[];" parent="31" vertex="1" connectable="0">
                    <mxGeometry x="0.05" y="-3" relative="1" as="geometry">
                        <mxPoint as="offset"/>
                    </mxGeometry>
                </mxCell>
                <mxCell id="38" style="edgeStyle=none;html=1;entryX=0.25;entryY=1;entryDx=0;entryDy=0;exitX=0.25;exitY=0;exitDx=0;exitDy=0;" parent="1" source="44" target="8" edge="1">
                    <mxGeometry relative="1" as="geometry">
                        <mxPoint x="1480" y="300" as="sourcePoint"/>
                    </mxGeometry>
                </mxCell>
                <mxCell id="39" value="dep" style="edgeLabel;html=1;align=center;verticalAlign=middle;resizable=0;points=[];" parent="38" vertex="1" connectable="0">
                    <mxGeometry x="0.0833" y="1" relative="1" as="geometry">
                        <mxPoint as="offset"/>
                    </mxGeometry>
                </mxCell>
                <mxCell id="40" style="edgeStyle=none;html=1;exitX=0.75;exitY=1;exitDx=0;exitDy=0;entryX=0.25;entryY=1;entryDx=0;entryDy=0;" parent="1" source="44" target="13" edge="1">
                    <mxGeometry relative="1" as="geometry">
                        <Array as="points">
                            <mxPoint x="1540" y="450"/>
                            <mxPoint x="770" y="450"/>
                        </Array>
                    </mxGeometry>
                </mxCell>
                <mxCell id="41" value="sub" style="edgeLabel;html=1;align=center;verticalAlign=middle;resizable=0;points=[];" parent="40" vertex="1" connectable="0">
                    <mxGeometry x="-0.0096" y="-2" relative="1" as="geometry">
                        <mxPoint as="offset"/>
                    </mxGeometry>
                </mxCell>
                <mxCell id="42" style="edgeStyle=none;html=1;exitX=0;exitY=0.25;exitDx=0;exitDy=0;entryX=1;entryY=0.25;entryDx=0;entryDy=0;" parent="1" source="44" target="30" edge="1">
                    <mxGeometry relative="1" as="geometry"/>
                </mxCell>
                <mxCell id="43" value="prevDep" style="edgeLabel;html=1;align=center;verticalAlign=middle;resizable=0;points=[];" parent="42" vertex="1" connectable="0">
                    <mxGeometry x="-0.0378" y="-3" relative="1" as="geometry">
                        <mxPoint as="offset"/>
                    </mxGeometry>
                </mxCell>
                <mxCell id="44" value="&lt;span style=&quot;color: rgb(0, 0, 0);&quot;&gt;link2&lt;/span&gt;" style="rounded=0;whiteSpace=wrap;html=1;" parent="1" vertex="1">
                    <mxGeometry x="1450" y="310" width="120" height="60" as="geometry"/>
                </mxCell>
                <mxCell id="46" value="y轴&amp;nbsp; Sub" style="text;html=1;align=center;verticalAlign=middle;resizable=0;points=[];autosize=1;strokeColor=none;fillColor=none;" parent="1" vertex="1">
                    <mxGeometry x="640" y="230" width="70" height="30" as="geometry"/>
                </mxCell>
                <mxCell id="62" value="&lt;span&gt;初始化的时候flag的值是true&lt;/span&gt;" style="text;html=1;align=center;verticalAlign=middle;resizable=0;points=[];autosize=1;strokeColor=none;fillColor=none;" parent="1" vertex="1">
                    <mxGeometry x="510" y="55" width="170" height="30" as="geometry"/>
                </mxCell>
                <mxCell id="63" style="edgeStyle=none;html=1;exitX=0.75;exitY=1;exitDx=0;exitDy=0;entryX=0.75;entryY=0;entryDx=0;entryDy=0;" parent="1" edge="1">
                    <mxGeometry relative="1" as="geometry">
                        <mxPoint x="1160" y="130" as="sourcePoint"/>
                        <mxPoint x="1160" y="310" as="targetPoint"/>
                    </mxGeometry>
                </mxCell>
                <mxCell id="64" value="subs" style="edgeLabel;html=1;align=center;verticalAlign=middle;resizable=0;points=[];" parent="63" vertex="1" connectable="0">
                    <mxGeometry x="-0.0918" y="-2" relative="1" as="geometry">
                        <mxPoint as="offset"/>
                    </mxGeometry>
                </mxCell>
                <mxCell id="65" value="version:0" style="text;html=1;align=center;verticalAlign=middle;resizable=0;points=[];autosize=1;strokeColor=none;fillColor=none;" parent="1" vertex="1">
                    <mxGeometry x="1190" y="85" width="70" height="30" as="geometry"/>
                </mxCell>
                <mxCell id="66" value="version:0" style="text;html=1;align=center;verticalAlign=middle;resizable=0;points=[];autosize=1;strokeColor=none;fillColor=none;" parent="1" vertex="1">
                    <mxGeometry x="1570" y="85" width="70" height="30" as="geometry"/>
                </mxCell>
                <mxCell id="67" value="version:0" style="text;html=1;align=center;verticalAlign=middle;resizable=0;points=[];autosize=1;strokeColor=none;fillColor=none;" parent="1" vertex="1">
                    <mxGeometry x="1200" y="290" width="70" height="30" as="geometry"/>
                </mxCell>
                <mxCell id="68" value="version:0" style="text;html=1;align=center;verticalAlign=middle;resizable=0;points=[];autosize=1;strokeColor=none;fillColor=none;" parent="1" vertex="1">
                    <mxGeometry x="1560" y="280" width="70" height="30" as="geometry"/>
                </mxCell>
                <mxCell id="69" value="Dep1(flag)" style="rounded=0;whiteSpace=wrap;html=1;" parent="1" vertex="1">
                    <mxGeometry x="1070" y="600" width="120" height="60" as="geometry"/>
                </mxCell>
                <mxCell id="70" style="edgeStyle=none;html=1;exitX=0.75;exitY=1;exitDx=0;exitDy=0;entryX=0.75;entryY=0;entryDx=0;entryDy=0;" parent="1" source="72" target="94" edge="1">
                    <mxGeometry relative="1" as="geometry"/>
                </mxCell>
                <mxCell id="71" value="subs" style="edgeLabel;html=1;align=center;verticalAlign=middle;resizable=0;points=[];" parent="70" vertex="1" connectable="0">
                    <mxGeometry x="-0.0918" y="-2" relative="1" as="geometry">
                        <mxPoint as="offset"/>
                    </mxGeometry>
                </mxCell>
                <mxCell id="72" value="Dep2(count1)" style="rounded=0;whiteSpace=wrap;html=1;" parent="1" vertex="1">
                    <mxGeometry x="1450" y="600" width="120" height="60" as="geometry"/>
                </mxCell>
                <mxCell id="73" style="edgeStyle=none;html=1;exitX=1;exitY=0.75;exitDx=0;exitDy=0;entryX=0;entryY=0.75;entryDx=0;entryDy=0;" parent="1" source="77" target="87" edge="1">
                    <mxGeometry relative="1" as="geometry"/>
                </mxCell>
                <mxCell id="74" value="deps" style="edgeLabel;html=1;align=center;verticalAlign=middle;resizable=0;points=[];" parent="73" vertex="1" connectable="0">
                    <mxGeometry x="0.0175" relative="1" as="geometry">
                        <mxPoint as="offset"/>
                    </mxGeometry>
                </mxCell>
                <mxCell id="75" style="edgeStyle=none;html=1;exitX=0.657;exitY=0.955;exitDx=0;exitDy=0;entryX=0.31;entryY=0.964;entryDx=0;entryDy=0;entryPerimeter=0;exitPerimeter=0;" parent="1" source="77" target="94" edge="1">
                    <mxGeometry relative="1" as="geometry">
                        <Array as="points">
                            <mxPoint x="819" y="960"/>
                            <mxPoint x="1130" y="960"/>
                            <mxPoint x="1487" y="960"/>
                        </Array>
                    </mxGeometry>
                </mxCell>
                <mxCell id="76" value="depsTail" style="edgeLabel;html=1;align=center;verticalAlign=middle;resizable=0;points=[];" parent="75" vertex="1" connectable="0">
                    <mxGeometry x="0.017" y="2" relative="1" as="geometry">
                        <mxPoint as="offset"/>
                    </mxGeometry>
                </mxCell>
                <mxCell id="77" value="Sub1(doubleCount)" style="rounded=0;whiteSpace=wrap;html=1;" parent="1" vertex="1">
                    <mxGeometry x="740" y="840" width="120" height="60" as="geometry"/>
                </mxCell>
                <mxCell id="78" value="" style="endArrow=classic;html=1;" parent="1" edge="1">
                    <mxGeometry width="50" height="50" relative="1" as="geometry">
                        <mxPoint x="710" y="580" as="sourcePoint"/>
                        <mxPoint x="2300" y="580" as="targetPoint"/>
                    </mxGeometry>
                </mxCell>
                <mxCell id="79" value="X轴&amp;nbsp; dep" style="text;html=1;align=center;verticalAlign=middle;resizable=0;points=[];autosize=1;strokeColor=none;fillColor=none;" parent="1" vertex="1">
                    <mxGeometry x="1165" y="540" width="70" height="30" as="geometry"/>
                </mxCell>
                <mxCell id="80" value="" style="endArrow=classic;html=1;" parent="1" edge="1">
                    <mxGeometry width="50" height="50" relative="1" as="geometry">
                        <mxPoint x="710" y="580" as="sourcePoint"/>
                        <mxPoint x="710" y="1010" as="targetPoint"/>
                    </mxGeometry>
                </mxCell>
                <mxCell id="81" style="edgeStyle=none;html=1;exitX=0.5;exitY=0;exitDx=0;exitDy=0;entryX=0.5;entryY=1;entryDx=0;entryDy=0;" parent="1" edge="1">
                    <mxGeometry relative="1" as="geometry">
                        <mxPoint x="1110" y="840" as="sourcePoint"/>
                        <mxPoint x="1110" y="660" as="targetPoint"/>
                    </mxGeometry>
                </mxCell>
                <mxCell id="82" value="&lt;span style=&quot;color: rgb(0, 0, 0); font-size: 12px; background-color: rgb(251, 251, 251);&quot;&gt;dep&lt;/span&gt;" style="edgeLabel;html=1;align=center;verticalAlign=middle;resizable=0;points=[];" parent="81" vertex="1" connectable="0">
                    <mxGeometry x="0.0918" y="2" relative="1" as="geometry">
                        <mxPoint as="offset"/>
                    </mxGeometry>
                </mxCell>
                <mxCell id="83" style="edgeStyle=none;html=1;exitX=0;exitY=0.25;exitDx=0;exitDy=0;entryX=1;entryY=0.25;entryDx=0;entryDy=0;" parent="1" source="87" target="77" edge="1">
                    <mxGeometry relative="1" as="geometry"/>
                </mxCell>
                <mxCell id="84" value="&lt;span style=&quot;color: rgb(0, 0, 0); font-size: 12px; background-color: rgb(251, 251, 251);&quot;&gt;sub&lt;/span&gt;" style="edgeLabel;html=1;align=center;verticalAlign=middle;resizable=0;points=[];" parent="83" vertex="1" connectable="0">
                    <mxGeometry x="-0.1079" y="-2" relative="1" as="geometry">
                        <mxPoint as="offset"/>
                    </mxGeometry>
                </mxCell>
                <mxCell id="85" style="edgeStyle=none;html=1;exitX=1;exitY=0.75;exitDx=0;exitDy=0;entryX=0;entryY=0.75;entryDx=0;entryDy=0;" parent="1" source="87" target="94" edge="1">
                    <mxGeometry relative="1" as="geometry"/>
                </mxCell>
                <mxCell id="86" value="nextDep" style="edgeLabel;html=1;align=center;verticalAlign=middle;resizable=0;points=[];" parent="85" vertex="1" connectable="0">
                    <mxGeometry x="0.0244" y="-1" relative="1" as="geometry">
                        <mxPoint as="offset"/>
                    </mxGeometry>
                </mxCell>
                <mxCell id="87" value="link1" style="rounded=0;whiteSpace=wrap;html=1;" parent="1" vertex="1">
                    <mxGeometry x="1070" y="840" width="120" height="60" as="geometry"/>
                </mxCell>
                <mxCell id="88" style="edgeStyle=none;html=1;entryX=0.25;entryY=1;entryDx=0;entryDy=0;exitX=0.25;exitY=0;exitDx=0;exitDy=0;" parent="1" source="94" target="72" edge="1">
                    <mxGeometry relative="1" as="geometry">
                        <mxPoint x="1480" y="830" as="sourcePoint"/>
                    </mxGeometry>
                </mxCell>
                <mxCell id="89" value="dep" style="edgeLabel;html=1;align=center;verticalAlign=middle;resizable=0;points=[];" parent="88" vertex="1" connectable="0">
                    <mxGeometry x="0.0833" y="1" relative="1" as="geometry">
                        <mxPoint as="offset"/>
                    </mxGeometry>
                </mxCell>
                <mxCell id="90" style="edgeStyle=none;html=1;exitX=0.75;exitY=1;exitDx=0;exitDy=0;entryX=0.25;entryY=1;entryDx=0;entryDy=0;" parent="1" source="94" target="77" edge="1">
                    <mxGeometry relative="1" as="geometry">
                        <Array as="points">
                            <mxPoint x="1540" y="980"/>
                            <mxPoint x="770" y="980"/>
                        </Array>
                    </mxGeometry>
                </mxCell>
                <mxCell id="91" value="sub" style="edgeLabel;html=1;align=center;verticalAlign=middle;resizable=0;points=[];" parent="90" vertex="1" connectable="0">
                    <mxGeometry x="-0.0096" y="-2" relative="1" as="geometry">
                        <mxPoint as="offset"/>
                    </mxGeometry>
                </mxCell>
                <mxCell id="92" style="edgeStyle=none;html=1;exitX=0;exitY=0.25;exitDx=0;exitDy=0;entryX=1;entryY=0.25;entryDx=0;entryDy=0;" parent="1" source="94" target="87" edge="1">
                    <mxGeometry relative="1" as="geometry"/>
                </mxCell>
                <mxCell id="93" value="prevDep" style="edgeLabel;html=1;align=center;verticalAlign=middle;resizable=0;points=[];" parent="92" vertex="1" connectable="0">
                    <mxGeometry x="-0.0378" y="-3" relative="1" as="geometry">
                        <mxPoint as="offset"/>
                    </mxGeometry>
                </mxCell>
                <mxCell id="94" value="&lt;span style=&quot;color: rgb(0, 0, 0);&quot;&gt;link2&lt;/span&gt;" style="rounded=0;whiteSpace=wrap;html=1;" parent="1" vertex="1">
                    <mxGeometry x="1450" y="840" width="120" height="60" as="geometry"/>
                </mxCell>
                <mxCell id="95" value="y轴&amp;nbsp; Sub" style="text;html=1;align=center;verticalAlign=middle;resizable=0;points=[];autosize=1;strokeColor=none;fillColor=none;" parent="1" vertex="1">
                    <mxGeometry x="640" y="760" width="70" height="30" as="geometry"/>
                </mxCell>
                <mxCell id="96" value="count1++&lt;div&gt;&lt;font style=&quot;color: rgb(0, 0, 0);&quot;&gt;count.version++&lt;/font&gt;&lt;/div&gt;&lt;div&gt;&lt;font style=&quot;color: rgb(0, 0, 0);&quot;&gt;&lt;span style=&quot;color: rgb(0, 0, 0);&quot;&gt;winodw.globalVersion++，&lt;/span&gt;&lt;/font&gt;&lt;/div&gt;&lt;div&gt;&lt;font style=&quot;color: rgb(0, 0, 0);&quot;&gt;&lt;span style=&quot;color: rgb(0, 0, 0);&quot;&gt;说明有响应式更新&lt;/span&gt;&lt;/font&gt;&lt;/div&gt;" style="text;html=1;align=center;verticalAlign=middle;resizable=0;points=[];autosize=1;strokeColor=none;fillColor=none;" parent="1" vertex="1">
                    <mxGeometry x="405" y="598" width="160" height="70" as="geometry"/>
                </mxCell>
                <mxCell id="97" style="edgeStyle=none;html=1;exitX=0.75;exitY=1;exitDx=0;exitDy=0;entryX=0.75;entryY=0;entryDx=0;entryDy=0;" parent="1" edge="1">
                    <mxGeometry relative="1" as="geometry">
                        <mxPoint x="1160" y="660" as="sourcePoint"/>
                        <mxPoint x="1160" y="840" as="targetPoint"/>
                    </mxGeometry>
                </mxCell>
                <mxCell id="98" value="subs" style="edgeLabel;html=1;align=center;verticalAlign=middle;resizable=0;points=[];" parent="97" vertex="1" connectable="0">
                    <mxGeometry x="-0.0918" y="-2" relative="1" as="geometry">
                        <mxPoint as="offset"/>
                    </mxGeometry>
                </mxCell>
                <mxCell id="99" value="version:0" style="text;html=1;align=center;verticalAlign=middle;resizable=0;points=[];autosize=1;strokeColor=none;fillColor=none;" parent="1" vertex="1">
                    <mxGeometry x="1190" y="615" width="70" height="30" as="geometry"/>
                </mxCell>
                <mxCell id="100" value="version:0" style="text;html=1;align=center;verticalAlign=middle;resizable=0;points=[];autosize=1;strokeColor=none;fillColor=none;" parent="1" vertex="1">
                    <mxGeometry x="1570" y="615" width="70" height="30" as="geometry"/>
                </mxCell>
                <mxCell id="101" value="version:0" style="text;html=1;align=center;verticalAlign=middle;resizable=0;points=[];autosize=1;strokeColor=none;fillColor=none;" parent="1" vertex="1">
                    <mxGeometry x="1200" y="820" width="70" height="30" as="geometry"/>
                </mxCell>
                <mxCell id="102" value="version:0" style="text;html=1;align=center;verticalAlign=middle;resizable=0;points=[];autosize=1;strokeColor=none;fillColor=none;" parent="1" vertex="1">
                    <mxGeometry x="1560" y="810" width="70" height="30" as="geometry"/>
                </mxCell>
                <mxCell id="103" value="globalVersion=0" style="text;html=1;align=center;verticalAlign=middle;resizable=0;points=[];autosize=1;strokeColor=none;fillColor=none;" parent="1" vertex="1">
                    <mxGeometry x="1625" y="25" width="110" height="30" as="geometry"/>
                </mxCell>
                <mxCell id="104" value="window.globalVersion=1" style="text;html=1;align=center;verticalAlign=middle;resizable=0;points=[];autosize=1;strokeColor=none;fillColor=none;" parent="1" vertex="1">
                    <mxGeometry x="1560" y="530" width="150" height="30" as="geometry"/>
                </mxCell>
                <mxCell id="105" value="按照正常的逻辑如果&lt;font face=&quot;Consolas, Monaco, Menlo, monospace&quot;&gt;&lt;span style=&quot;font-size: 14px; background-color: rgba(27, 31, 35, 0.05);&quot;&gt;count1&lt;/span&gt;&lt;/font&gt;变量的值改变，就可以通过&lt;code style=&quot;font-size: 14px; line-height: 1.8em; letter-spacing: 0em; background: none 0% 0% / auto no-repeat scroll padding-box border-box rgba(27, 31, 35, 0.05); width: auto; height: auto; margin-left: 2px; margin-right: 2px; padding: 2px 4px; border-style: none; border-width: 3px; border-color: rgb(0, 0, 0) rgba(0, 0, 0, 0.4) rgba(0, 0, 0, 0.4); font-family: Consolas, Monaco, Menlo, monospace; word-break: break-all; color: rgb(30, 107, 184);&quot;&gt;Link2&lt;/code&gt;&lt;span style=&quot;background-color: transparent;&quot;&gt;节点找到&lt;/span&gt;&lt;div&gt;&lt;code style=&quot;font-size: 14px; line-height: 1.8em; letter-spacing: 0em; background: none 0% 0% / auto no-repeat scroll padding-box border-box rgba(27, 31, 35, 0.05); width: auto; height: auto; margin-left: 2px; margin-right: 2px; padding: 2px 4px; border-style: none; border-width: 3px; border-color: rgb(0, 0, 0) rgba(0, 0, 0, 0.4) rgba(0, 0, 0, 0.4); font-family: Consolas, Monaco, Menlo, monospace; word-break: break-all; color: rgb(30, 107, 184);&quot;&gt;Sub1&lt;/code&gt;&lt;span style=&quot;background-color: transparent;&quot;&gt;订阅者，然后执行订阅者的&lt;/span&gt;&lt;code style=&quot;font-size: 14px; line-height: 1.8em; letter-spacing: 0em; background: none 0% 0% / auto no-repeat scroll padding-box border-box rgba(27, 31, 35, 0.05); width: auto; height: auto; margin-left: 2px; margin-right: 2px; padding: 2px 4px; border-style: none; border-width: 3px; border-color: rgb(0, 0, 0) rgba(0, 0, 0, 0.4) rgba(0, 0, 0, 0.4); font-family: Consolas, Monaco, Menlo, monospace; word-break: break-all; color: rgb(30, 107, 184);&quot;&gt;notify&lt;/code&gt;&lt;span style=&quot;background-color: transparent;&quot;&gt;方法从而进行更新。&lt;/span&gt;&lt;/div&gt;" style="text;html=1;align=left;verticalAlign=middle;resizable=0;points=[];autosize=1;strokeColor=none;fillColor=none;" parent="1" vertex="1">
                    <mxGeometry x="290" y="663" width="420" height="60" as="geometry"/>
                </mxCell>
                <mxCell id="109" value="&lt;span style=&quot;color: rgb(0, 0, 0);&quot;&gt;如果我们的&lt;/span&gt;&lt;code style=&quot;font-family: Consolas, Monaco, Menlo, monospace; background: none 0% 0% / auto no-repeat scroll padding-box border-box rgba(27, 31, 35, 0.05); padding: 2px 4px; letter-spacing: 0em; font-size: 14px; width: auto; height: auto; margin-left: 2px; margin-right: 2px; border-style: none; border-width: 3px; border-color: rgb(0, 0, 0) rgba(0, 0, 0, 0.4) rgba(0, 0, 0, 0.4); word-break: break-all; color: rgb(30, 107, 184);&quot;&gt;Sub1&lt;/code&gt;&lt;span style=&quot;color: rgb(0, 0, 0);&quot;&gt;订阅者是render函数，是这个正常的逻辑。&lt;/span&gt;&lt;span style=&quot;background-color: transparent;&quot;&gt;但是此&lt;/span&gt;&lt;span style=&quot;background-color: transparent;&quot;&gt;时我&lt;/span&gt;&lt;div&gt;&lt;span style=&quot;background-color: transparent;&quot;&gt;们的&lt;/span&gt;&lt;code style=&quot;font-family: Consolas, Monaco, Menlo, monospace; background: none 0% 0% / auto no-repeat scroll padding-box border-box rgba(27, 31, 35, 0.05); padding: 2px 4px; font-size: 14px; line-height: 1.8em; letter-spacing: 0em; width: auto; height: auto; margin-left: 2px; margin-right: 2px; border-style: none; border-width: 3px; border-color: rgb(0, 0, 0) rgba(0, 0, 0, 0.4) rgba(0, 0, 0, 0.4); word-break: break-all; color: rgb(30, 107, 184);&quot;&gt;Sub1&lt;/code&gt;&lt;span style=&quot;background-color: transparent;&quot;&gt;订阅者是计算属性&lt;/span&gt;&lt;code style=&quot;font-family: Consolas, Monaco, Menlo, monospace; background: none 0% 0% / auto no-repeat scroll padding-box border-box rgba(27, 31, 35, 0.05); padding: 2px 4px; font-size: 14px; line-height: 1.8em; letter-spacing: 0em; width: auto; height: auto; margin-left: 2px; margin-right: 2px; border-style: none; border-width: 3px; border-color: rgb(0, 0, 0) rgba(0, 0, 0, 0.4) rgba(0, 0, 0, 0.4); word-break: break-all; color: rgb(30, 107, 184);&quot;&gt;doubleCount&lt;/code&gt;&lt;span style=&quot;background-color: transparent;&quot;&gt;，&lt;/span&gt;&lt;span style=&quot;background-color: transparent;&quot;&gt;这里会有一个优化，&lt;/span&gt;&lt;/div&gt;&lt;div&gt;&lt;span style=&quot;background-color: transparent;&quot;&gt;如果订阅者是一个计算属性，&lt;/span&gt;&lt;span style=&quot;background-color: transparent;&quot;&gt;触发其更新时不会直接执行计算属性的回调&lt;/span&gt;&lt;/div&gt;&lt;div&gt;&lt;span style=&quot;background-color: transparent;&quot;&gt;函数，&lt;/span&gt;&lt;span style=&quot;background-color: transparent;&quot;&gt;而是直接去通知计算属性的订阅者去更新，&lt;/span&gt;&lt;span style=&quot;background-color: transparent;&quot;&gt;在更新前才会去执行计&lt;/span&gt;&lt;/div&gt;&lt;div&gt;&lt;span style=&quot;background-color: transparent;&quot;&gt;算属性的回调函数。&lt;/span&gt;&lt;/div&gt;" style="text;html=1;align=left;verticalAlign=middle;resizable=0;points=[];autosize=1;strokeColor=none;fillColor=none;" parent="1" vertex="1">
                    <mxGeometry x="200" y="750" width="410" height="100" as="geometry"/>
                </mxCell>
                <mxCell id="110" value="Dep4(&lt;span style=&quot;color: rgb(0, 0, 0);&quot;&gt;doubleCount&lt;/span&gt;)" style="rounded=0;whiteSpace=wrap;html=1;" parent="1" vertex="1">
                    <mxGeometry x="2140" y="603" width="120" height="60" as="geometry"/>
                </mxCell>
                <mxCell id="111" value="Sub2(render函数)" style="rounded=0;whiteSpace=wrap;html=1;" parent="1" vertex="1">
                    <mxGeometry x="1820" y="840" width="120" height="60" as="geometry"/>
                </mxCell>
                <mxCell id="112" value="link3" style="rounded=0;whiteSpace=wrap;html=1;" parent="1" vertex="1">
                    <mxGeometry x="2150" y="840" width="120" height="60" as="geometry"/>
                </mxCell>
                <mxCell id="113" style="edgeStyle=none;html=1;exitX=0.5;exitY=0;exitDx=0;exitDy=0;entryX=0.5;entryY=1;entryDx=0;entryDy=0;" parent="1" edge="1">
                    <mxGeometry relative="1" as="geometry">
                        <mxPoint x="2180" y="843" as="sourcePoint"/>
                        <mxPoint x="2180" y="663" as="targetPoint"/>
                    </mxGeometry>
                </mxCell>
                <mxCell id="114" value="&lt;span style=&quot;color: rgb(0, 0, 0); font-size: 12px; background-color: rgb(251, 251, 251);&quot;&gt;dep&lt;/span&gt;" style="edgeLabel;html=1;align=center;verticalAlign=middle;resizable=0;points=[];" parent="113" vertex="1" connectable="0">
                    <mxGeometry x="0.0918" y="2" relative="1" as="geometry">
                        <mxPoint as="offset"/>
                    </mxGeometry>
                </mxCell>
                <mxCell id="115" style="edgeStyle=none;html=1;exitX=0.75;exitY=1;exitDx=0;exitDy=0;entryX=0.75;entryY=0;entryDx=0;entryDy=0;" parent="1" edge="1">
                    <mxGeometry relative="1" as="geometry">
                        <mxPoint x="2230" y="663" as="sourcePoint"/>
                        <mxPoint x="2230" y="843" as="targetPoint"/>
                    </mxGeometry>
                </mxCell>
                <mxCell id="116" value="subs" style="edgeLabel;html=1;align=center;verticalAlign=middle;resizable=0;points=[];" parent="115" vertex="1" connectable="0">
                    <mxGeometry x="-0.0918" y="-2" relative="1" as="geometry">
                        <mxPoint as="offset"/>
                    </mxGeometry>
                </mxCell>
                <mxCell id="117" style="edgeStyle=none;html=1;exitX=1;exitY=0.75;exitDx=0;exitDy=0;entryX=0;entryY=0.75;entryDx=0;entryDy=0;" parent="1" edge="1">
                    <mxGeometry relative="1" as="geometry">
                        <mxPoint x="1940" y="884.47" as="sourcePoint"/>
                        <mxPoint x="2150" y="884.47" as="targetPoint"/>
                    </mxGeometry>
                </mxCell>
                <mxCell id="118" value="deps" style="edgeLabel;html=1;align=center;verticalAlign=middle;resizable=0;points=[];" parent="117" vertex="1" connectable="0">
                    <mxGeometry x="0.0175" relative="1" as="geometry">
                        <mxPoint as="offset"/>
                    </mxGeometry>
                </mxCell>
                <mxCell id="119" style="edgeStyle=none;html=1;exitX=0;exitY=0.25;exitDx=0;exitDy=0;entryX=1;entryY=0.25;entryDx=0;entryDy=0;" parent="1" edge="1">
                    <mxGeometry relative="1" as="geometry">
                        <mxPoint x="2150" y="854.47" as="sourcePoint"/>
                        <mxPoint x="1940" y="854.47" as="targetPoint"/>
                    </mxGeometry>
                </mxCell>
                <mxCell id="120" value="&lt;span style=&quot;color: rgb(0, 0, 0); font-size: 12px; background-color: rgb(251, 251, 251);&quot;&gt;sub&lt;/span&gt;" style="edgeLabel;html=1;align=center;verticalAlign=middle;resizable=0;points=[];" parent="119" vertex="1" connectable="0">
                    <mxGeometry x="-0.1079" y="-2" relative="1" as="geometry">
                        <mxPoint as="offset"/>
                    </mxGeometry>
                </mxCell>
                <mxCell id="121" style="edgeStyle=none;html=1;exitX=0.657;exitY=0.955;exitDx=0;exitDy=0;entryX=0.5;entryY=1;entryDx=0;entryDy=0;exitPerimeter=0;" parent="1" target="112" edge="1">
                    <mxGeometry relative="1" as="geometry">
                        <Array as="points">
                            <mxPoint x="1880" y="963"/>
                            <mxPoint x="2191" y="963"/>
                            <mxPoint x="2210" y="960"/>
                        </Array>
                        <mxPoint x="1880" y="900" as="sourcePoint"/>
                        <mxPoint x="2548" y="901" as="targetPoint"/>
                    </mxGeometry>
                </mxCell>
                <mxCell id="122" value="depsTail" style="edgeLabel;html=1;align=center;verticalAlign=middle;resizable=0;points=[];" parent="121" vertex="1" connectable="0">
                    <mxGeometry x="0.017" y="2" relative="1" as="geometry">
                        <mxPoint as="offset"/>
                    </mxGeometry>
                </mxCell>
                <mxCell id="123" value="&lt;p style=&quot;color: rgb(89, 89, 89); font-size: 15px; line-height: 1.8em; letter-spacing: 0.04em; text-indent: 0em; padding-top: 8px; padding-bottom: 8px;&quot; data-tool=&quot;mdnice编辑器&quot;&gt;当前的订阅者是计算属性，然后就会触发计算属性“作为依赖”时对应的订阅者。我们这里的计算属性&lt;/p&gt;&lt;p style=&quot;color: rgb(89, 89, 89); font-size: 15px; line-height: 1.8em; letter-spacing: 0.04em; text-indent: 0em; padding-top: 8px; padding-bottom: 8px;&quot; data-tool=&quot;mdnice编辑器&quot;&gt;&lt;code style=&quot;color: rgb(30, 107, 184); font-size: 14px; line-height: 1.8em; letter-spacing: 0em; background: none 0% 0% / auto no-repeat scroll padding-box border-box rgba(27, 31, 35, 0.05); width: auto; height: auto; margin-left: 2px; margin-right: 2px; padding: 2px 4px; border-style: none; border-width: 3px; border-color: rgb(0, 0, 0) rgba(0, 0, 0, 0.4) rgba(0, 0, 0, 0.4); font-family: Consolas, Monaco, Menlo, monospace; word-break: break-all;&quot;&gt;doubleCount&lt;/code&gt;是在template中使用，所以计算属性&lt;code style=&quot;color: rgb(30, 107, 184); font-size: 14px; line-height: 1.8em; letter-spacing: 0em; background: none 0% 0% / auto no-repeat scroll padding-box border-box rgba(27, 31, 35, 0.05); width: auto; height: auto; margin-left: 2px; margin-right: 2px; padding: 2px 4px; border-style: none; border-width: 3px; border-color: rgb(0, 0, 0) rgba(0, 0, 0, 0.4) rgba(0, 0, 0, 0.4); font-family: Consolas, Monaco, Menlo, monospace; word-break: break-all;&quot;&gt;doubleCount&lt;/code&gt;的订阅者就是render函数。&lt;/p&gt;&lt;p style=&quot;color: rgb(89, 89, 89); font-size: 15px; line-height: 1.8em; letter-spacing: 0.04em; text-indent: 0em; padding-top: 8px; padding-bottom: 8px;&quot; data-tool=&quot;mdnice编辑器&quot;&gt;&lt;br&gt;&lt;/p&gt;" style="text;html=1;align=center;verticalAlign=middle;resizable=0;points=[];autosize=1;strokeColor=none;fillColor=none;" parent="1" vertex="1">
                    <mxGeometry x="10070" y="1080" width="710" height="200" as="geometry"/>
                </mxCell>
                <mxCell id="124" value="&lt;p style=&quot;text-align: justify; text-indent: 0em; font-size: 15px; letter-spacing: 0.04em; padding-top: 8px; padding-bottom: 8px; color: rgb(89, 89, 89);&quot; data-tool=&quot;mdnice编辑器&quot;&gt;&lt;br&gt;&lt;/p&gt;" style="text;html=1;align=center;verticalAlign=bottom;resizable=0;points=[];autosize=1;strokeColor=none;fillColor=none;labelPosition=center;verticalLabelPosition=top;" parent="1" vertex="1">
                    <mxGeometry x="450" y="1430" width="20" height="80" as="geometry"/>
                </mxCell>
                <mxCell id="127" value="&lt;div style=&quot;font-family: Consolas, &amp;quot;Courier New&amp;quot;, monospace; font-size: 14px; line-height: 19px; white-space-collapse: preserve;&quot;&gt;&lt;div style=&quot;&quot;&gt;&lt;span&gt;&lt;font style=&quot;color: rgb(0, 0, 0);&quot;&gt;此时当前的订阅者是计算属性，然后就会触发计算属性“作为依赖”时对应的订阅者。我们这里的计算属性&lt;/font&gt;&lt;/span&gt;&lt;/div&gt;&lt;div style=&quot;text-align: left;&quot;&gt;&lt;span style=&quot;color: rgb(171, 178, 191);&quot;&gt;&lt;font style=&quot;color: rgb(0, 0, 0);&quot;&gt;doubleCount是在template中使用，所以计算属性doubleCount的订阅者就是render函数。&lt;/font&gt;&lt;/span&gt;&lt;/div&gt;&lt;/div&gt;" style="text;html=1;align=center;verticalAlign=middle;resizable=0;points=[];autosize=1;strokeColor=none;fillColor=none;" parent="1" vertex="1">
                    <mxGeometry x="30" y="860" width="670" height="50" as="geometry"/>
                </mxCell>
                <mxCell id="128" value="&lt;div style=&quot;font-family: Consolas, &amp;quot;Courier New&amp;quot;, monospace; font-size: 14px; line-height: 19px; white-space-collapse: preserve;&quot;&gt;&lt;div style=&quot;&quot;&gt;&lt;span&gt;&lt;font style=&quot;color: rgb(0, 0, 0);&quot;&gt;&lt;span&gt;所以这里不会触发计算属性doubleCount中的回调函数重新执行，&lt;/span&gt;而是去触发&lt;/font&gt;&lt;/span&gt;&lt;span style=&quot;background-color: transparent;&quot;&gt;计算属性doubleCount&lt;/span&gt;&lt;span style=&quot;background-color: transparent;&quot;&gt;的订阅者，&lt;/span&gt;&lt;/div&gt;&lt;div style=&quot;&quot;&gt;&lt;span style=&quot;background-color: transparent;&quot;&gt;也就是render函数。在执行render函数之前会再去通过脏检查&lt;/span&gt;&lt;span style=&quot;background-color: transparent;&quot;&gt;（依靠版本计数实现）去判断是否需要重新执&lt;/span&gt;&lt;/div&gt;&lt;div style=&quot;&quot;&gt;&lt;span style=&quot;background-color: transparent;&quot;&gt;行计算属性的回调，如果需要执行计算属性的回调那么&lt;/span&gt;&lt;span style=&quot;background-color: transparent;&quot;&gt;就去执行render函数重新渲染。&lt;/span&gt;&lt;/div&gt;&lt;/div&gt;" style="text;html=1;align=left;verticalAlign=middle;resizable=0;points=[];autosize=1;strokeColor=none;fillColor=none;" parent="1" vertex="1">
                    <mxGeometry x="20" y="920" width="710" height="70" as="geometry"/>
                </mxCell>
                <mxCell id="132" value="version = 0" style="text;html=1;align=center;verticalAlign=middle;resizable=0;points=[];autosize=1;strokeColor=none;fillColor=none;" parent="1" vertex="1">
                    <mxGeometry x="2280" y="850" width="80" height="30" as="geometry"/>
                </mxCell>
                <mxCell id="135" value="Dep1(flag)" style="rounded=0;whiteSpace=wrap;html=1;" parent="1" vertex="1">
                    <mxGeometry x="1070" y="1270" width="120" height="60" as="geometry"/>
                </mxCell>
                <mxCell id="136" style="edgeStyle=none;html=1;exitX=0.75;exitY=1;exitDx=0;exitDy=0;entryX=0.75;entryY=0;entryDx=0;entryDy=0;" parent="1" source="138" target="160" edge="1">
                    <mxGeometry relative="1" as="geometry"/>
                </mxCell>
                <mxCell id="137" value="subs" style="edgeLabel;html=1;align=center;verticalAlign=middle;resizable=0;points=[];" parent="136" vertex="1" connectable="0">
                    <mxGeometry x="-0.0918" y="-2" relative="1" as="geometry">
                        <mxPoint as="offset"/>
                    </mxGeometry>
                </mxCell>
                <mxCell id="138" value="Dep2(count1)" style="rounded=0;whiteSpace=wrap;html=1;" parent="1" vertex="1">
                    <mxGeometry x="1450" y="1270" width="120" height="60" as="geometry"/>
                </mxCell>
                <mxCell id="139" style="edgeStyle=none;html=1;exitX=1;exitY=0.75;exitDx=0;exitDy=0;entryX=0;entryY=0.75;entryDx=0;entryDy=0;" parent="1" source="143" target="153" edge="1">
                    <mxGeometry relative="1" as="geometry"/>
                </mxCell>
                <mxCell id="140" value="deps" style="edgeLabel;html=1;align=center;verticalAlign=middle;resizable=0;points=[];" parent="139" vertex="1" connectable="0">
                    <mxGeometry x="0.0175" relative="1" as="geometry">
                        <mxPoint as="offset"/>
                    </mxGeometry>
                </mxCell>
                <mxCell id="141" style="edgeStyle=none;html=1;exitX=0.657;exitY=0.955;exitDx=0;exitDy=0;entryX=0.25;entryY=1;entryDx=0;entryDy=0;exitPerimeter=0;" parent="1" source="143" target="209" edge="1">
                    <mxGeometry relative="1" as="geometry">
                        <Array as="points">
                            <mxPoint x="819" y="1630"/>
                            <mxPoint x="1130" y="1630"/>
                            <mxPoint x="1860" y="1630"/>
                        </Array>
                    </mxGeometry>
                </mxCell>
                <mxCell id="142" value="depsTail" style="edgeLabel;html=1;align=center;verticalAlign=middle;resizable=0;points=[];" parent="141" vertex="1" connectable="0">
                    <mxGeometry x="0.017" y="2" relative="1" as="geometry">
                        <mxPoint as="offset"/>
                    </mxGeometry>
                </mxCell>
                <mxCell id="143" value="Sub1(doubleCount)" style="rounded=0;whiteSpace=wrap;html=1;" parent="1" vertex="1">
                    <mxGeometry x="740" y="1510" width="120" height="60" as="geometry"/>
                </mxCell>
                <mxCell id="144" value="" style="endArrow=classic;html=1;" parent="1" edge="1">
                    <mxGeometry width="50" height="50" relative="1" as="geometry">
                        <mxPoint x="710" y="1250" as="sourcePoint"/>
                        <mxPoint x="2840" y="1250" as="targetPoint"/>
                    </mxGeometry>
                </mxCell>
                <mxCell id="145" value="X轴&amp;nbsp; dep" style="text;html=1;align=center;verticalAlign=middle;resizable=0;points=[];autosize=1;strokeColor=none;fillColor=none;" parent="1" vertex="1">
                    <mxGeometry x="1165" y="1210" width="70" height="30" as="geometry"/>
                </mxCell>
                <mxCell id="146" value="" style="endArrow=classic;html=1;" parent="1" edge="1">
                    <mxGeometry width="50" height="50" relative="1" as="geometry">
                        <mxPoint x="710" y="1250" as="sourcePoint"/>
                        <mxPoint x="710" y="1680" as="targetPoint"/>
                    </mxGeometry>
                </mxCell>
                <mxCell id="147" style="edgeStyle=none;html=1;exitX=0.5;exitY=0;exitDx=0;exitDy=0;entryX=0.5;entryY=1;entryDx=0;entryDy=0;" parent="1" edge="1">
                    <mxGeometry relative="1" as="geometry">
                        <mxPoint x="1110" y="1510" as="sourcePoint"/>
                        <mxPoint x="1110" y="1330" as="targetPoint"/>
                    </mxGeometry>
                </mxCell>
                <mxCell id="148" value="&lt;span style=&quot;color: rgb(0, 0, 0); font-size: 12px; background-color: rgb(251, 251, 251);&quot;&gt;dep&lt;/span&gt;" style="edgeLabel;html=1;align=center;verticalAlign=middle;resizable=0;points=[];" parent="147" vertex="1" connectable="0">
                    <mxGeometry x="0.0918" y="2" relative="1" as="geometry">
                        <mxPoint as="offset"/>
                    </mxGeometry>
                </mxCell>
                <mxCell id="149" style="edgeStyle=none;html=1;exitX=0;exitY=0.25;exitDx=0;exitDy=0;entryX=1;entryY=0.25;entryDx=0;entryDy=0;" parent="1" source="153" target="143" edge="1">
                    <mxGeometry relative="1" as="geometry"/>
                </mxCell>
                <mxCell id="150" value="&lt;span style=&quot;color: rgb(0, 0, 0); font-size: 12px; background-color: rgb(251, 251, 251);&quot;&gt;sub&lt;/span&gt;" style="edgeLabel;html=1;align=center;verticalAlign=middle;resizable=0;points=[];" parent="149" vertex="1" connectable="0">
                    <mxGeometry x="-0.1079" y="-2" relative="1" as="geometry">
                        <mxPoint as="offset"/>
                    </mxGeometry>
                </mxCell>
                <mxCell id="151" style="edgeStyle=none;html=1;exitX=1;exitY=0.75;exitDx=0;exitDy=0;entryX=0;entryY=0.75;entryDx=0;entryDy=0;" parent="1" source="153" target="160" edge="1">
                    <mxGeometry relative="1" as="geometry"/>
                </mxCell>
                <mxCell id="152" value="nextDep" style="edgeLabel;html=1;align=center;verticalAlign=middle;resizable=0;points=[];" parent="151" vertex="1" connectable="0">
                    <mxGeometry x="0.0244" y="-1" relative="1" as="geometry">
                        <mxPoint as="offset"/>
                    </mxGeometry>
                </mxCell>
                <mxCell id="153" value="link1" style="rounded=0;whiteSpace=wrap;html=1;" parent="1" vertex="1">
                    <mxGeometry x="1070" y="1510" width="120" height="60" as="geometry"/>
                </mxCell>
                <mxCell id="154" style="edgeStyle=none;html=1;entryX=0.25;entryY=1;entryDx=0;entryDy=0;exitX=0.25;exitY=0;exitDx=0;exitDy=0;" parent="1" source="160" target="138" edge="1">
                    <mxGeometry relative="1" as="geometry">
                        <mxPoint x="1480" y="1500" as="sourcePoint"/>
                    </mxGeometry>
                </mxCell>
                <mxCell id="155" value="dep" style="edgeLabel;html=1;align=center;verticalAlign=middle;resizable=0;points=[];" parent="154" vertex="1" connectable="0">
                    <mxGeometry x="0.0833" y="1" relative="1" as="geometry">
                        <mxPoint as="offset"/>
                    </mxGeometry>
                </mxCell>
                <mxCell id="156" style="edgeStyle=none;html=1;exitX=0.75;exitY=1;exitDx=0;exitDy=0;entryX=0.5;entryY=1;entryDx=0;entryDy=0;" parent="1" source="160" target="143" edge="1">
                    <mxGeometry relative="1" as="geometry">
                        <Array as="points">
                            <mxPoint x="1540" y="1650"/>
                            <mxPoint x="800" y="1650"/>
                        </Array>
                    </mxGeometry>
                </mxCell>
                <mxCell id="157" value="sub" style="edgeLabel;html=1;align=center;verticalAlign=middle;resizable=0;points=[];" parent="156" vertex="1" connectable="0">
                    <mxGeometry x="-0.0096" y="-2" relative="1" as="geometry">
                        <mxPoint as="offset"/>
                    </mxGeometry>
                </mxCell>
                <mxCell id="158" style="edgeStyle=none;html=1;exitX=0;exitY=0.25;exitDx=0;exitDy=0;entryX=1;entryY=0.25;entryDx=0;entryDy=0;" parent="1" source="160" target="153" edge="1">
                    <mxGeometry relative="1" as="geometry"/>
                </mxCell>
                <mxCell id="159" value="prevDep" style="edgeLabel;html=1;align=center;verticalAlign=middle;resizable=0;points=[];" parent="158" vertex="1" connectable="0">
                    <mxGeometry x="-0.0378" y="-3" relative="1" as="geometry">
                        <mxPoint as="offset"/>
                    </mxGeometry>
                </mxCell>
                <mxCell id="160" value="&lt;span style=&quot;color: rgb(0, 0, 0);&quot;&gt;link2&lt;/span&gt;" style="rounded=0;whiteSpace=wrap;html=1;" parent="1" vertex="1">
                    <mxGeometry x="1450" y="1510" width="120" height="60" as="geometry"/>
                </mxCell>
                <mxCell id="161" style="edgeStyle=none;html=1;exitX=0.75;exitY=1;exitDx=0;exitDy=0;entryX=0.75;entryY=0;entryDx=0;entryDy=0;" parent="1" edge="1">
                    <mxGeometry relative="1" as="geometry">
                        <mxPoint x="1160" y="1330" as="sourcePoint"/>
                        <mxPoint x="1160" y="1510" as="targetPoint"/>
                    </mxGeometry>
                </mxCell>
                <mxCell id="162" value="subs" style="edgeLabel;html=1;align=center;verticalAlign=middle;resizable=0;points=[];" parent="161" vertex="1" connectable="0">
                    <mxGeometry x="-0.0918" y="-2" relative="1" as="geometry">
                        <mxPoint as="offset"/>
                    </mxGeometry>
                </mxCell>
                <mxCell id="163" value="version:0" style="text;html=1;align=center;verticalAlign=middle;resizable=0;points=[];autosize=1;strokeColor=none;fillColor=none;" parent="1" vertex="1">
                    <mxGeometry x="1190" y="1285" width="70" height="30" as="geometry"/>
                </mxCell>
                <mxCell id="164" value="version:0" style="text;html=1;align=center;verticalAlign=middle;resizable=0;points=[];autosize=1;strokeColor=none;fillColor=none;" parent="1" vertex="1">
                    <mxGeometry x="1570" y="1285" width="70" height="30" as="geometry"/>
                </mxCell>
                <mxCell id="165" value="version:0" style="text;html=1;align=center;verticalAlign=middle;resizable=0;points=[];autosize=1;strokeColor=none;fillColor=none;" parent="1" vertex="1">
                    <mxGeometry x="1200" y="1477" width="70" height="30" as="geometry"/>
                </mxCell>
                <mxCell id="166" value="version:0" style="text;html=1;align=center;verticalAlign=middle;resizable=0;points=[];autosize=1;strokeColor=none;fillColor=none;" parent="1" vertex="1">
                    <mxGeometry x="1560" y="1480" width="70" height="30" as="geometry"/>
                </mxCell>
                <mxCell id="167" value="window.globalVersion=1" style="text;html=1;align=center;verticalAlign=middle;resizable=0;points=[];autosize=1;strokeColor=none;fillColor=none;" parent="1" vertex="1">
                    <mxGeometry x="1560" y="1200" width="150" height="30" as="geometry"/>
                </mxCell>
                <mxCell id="168" value="Dep2(&lt;span style=&quot;color: rgb(0, 0, 0);&quot;&gt;doubleCount&lt;/span&gt;)" style="rounded=0;whiteSpace=wrap;html=1;" parent="1" vertex="1">
                    <mxGeometry x="2550" y="1270" width="120" height="60" as="geometry"/>
                </mxCell>
                <mxCell id="169" value="Sub2(render函数)" style="rounded=0;whiteSpace=wrap;html=1;" parent="1" vertex="1">
                    <mxGeometry x="2230" y="1507" width="120" height="60" as="geometry"/>
                </mxCell>
                <mxCell id="170" value="link3" style="rounded=0;whiteSpace=wrap;html=1;" parent="1" vertex="1">
                    <mxGeometry x="2560" y="1507" width="120" height="60" as="geometry"/>
                </mxCell>
                <mxCell id="171" style="edgeStyle=none;html=1;exitX=0.5;exitY=0;exitDx=0;exitDy=0;entryX=0.5;entryY=1;entryDx=0;entryDy=0;" parent="1" edge="1">
                    <mxGeometry relative="1" as="geometry">
                        <mxPoint x="2590" y="1510" as="sourcePoint"/>
                        <mxPoint x="2590" y="1330" as="targetPoint"/>
                    </mxGeometry>
                </mxCell>
                <mxCell id="172" value="&lt;span style=&quot;color: rgb(0, 0, 0); font-size: 12px; background-color: rgb(251, 251, 251);&quot;&gt;dep&lt;/span&gt;" style="edgeLabel;html=1;align=center;verticalAlign=middle;resizable=0;points=[];" parent="171" vertex="1" connectable="0">
                    <mxGeometry x="0.0918" y="2" relative="1" as="geometry">
                        <mxPoint as="offset"/>
                    </mxGeometry>
                </mxCell>
                <mxCell id="173" style="edgeStyle=none;html=1;exitX=0.75;exitY=1;exitDx=0;exitDy=0;entryX=0.75;entryY=0;entryDx=0;entryDy=0;" parent="1" edge="1">
                    <mxGeometry relative="1" as="geometry">
                        <mxPoint x="2640" y="1330" as="sourcePoint"/>
                        <mxPoint x="2640" y="1510" as="targetPoint"/>
                    </mxGeometry>
                </mxCell>
                <mxCell id="174" value="subs" style="edgeLabel;html=1;align=center;verticalAlign=middle;resizable=0;points=[];" parent="173" vertex="1" connectable="0">
                    <mxGeometry x="-0.0918" y="-2" relative="1" as="geometry">
                        <mxPoint as="offset"/>
                    </mxGeometry>
                </mxCell>
                <mxCell id="175" style="edgeStyle=none;html=1;exitX=1;exitY=0.75;exitDx=0;exitDy=0;entryX=0;entryY=0.75;entryDx=0;entryDy=0;" parent="1" edge="1">
                    <mxGeometry relative="1" as="geometry">
                        <mxPoint x="2350" y="1551.47" as="sourcePoint"/>
                        <mxPoint x="2560" y="1551.47" as="targetPoint"/>
                    </mxGeometry>
                </mxCell>
                <mxCell id="176" value="deps" style="edgeLabel;html=1;align=center;verticalAlign=middle;resizable=0;points=[];" parent="175" vertex="1" connectable="0">
                    <mxGeometry x="0.0175" relative="1" as="geometry">
                        <mxPoint as="offset"/>
                    </mxGeometry>
                </mxCell>
                <mxCell id="177" style="edgeStyle=none;html=1;exitX=0;exitY=0.25;exitDx=0;exitDy=0;entryX=1;entryY=0.25;entryDx=0;entryDy=0;" parent="1" edge="1">
                    <mxGeometry relative="1" as="geometry">
                        <mxPoint x="2560" y="1521.47" as="sourcePoint"/>
                        <mxPoint x="2350" y="1521.47" as="targetPoint"/>
                    </mxGeometry>
                </mxCell>
                <mxCell id="178" value="&lt;span style=&quot;color: rgb(0, 0, 0); font-size: 12px; background-color: rgb(251, 251, 251);&quot;&gt;sub&lt;/span&gt;" style="edgeLabel;html=1;align=center;verticalAlign=middle;resizable=0;points=[];" parent="177" vertex="1" connectable="0">
                    <mxGeometry x="-0.1079" y="-2" relative="1" as="geometry">
                        <mxPoint as="offset"/>
                    </mxGeometry>
                </mxCell>
                <mxCell id="179" style="edgeStyle=none;html=1;exitX=0.657;exitY=0.955;exitDx=0;exitDy=0;entryX=0.5;entryY=1;entryDx=0;entryDy=0;exitPerimeter=0;" parent="1" target="170" edge="1">
                    <mxGeometry relative="1" as="geometry">
                        <Array as="points">
                            <mxPoint x="2290" y="1630"/>
                            <mxPoint x="2601" y="1630"/>
                            <mxPoint x="2620" y="1627"/>
                        </Array>
                        <mxPoint x="2290" y="1567" as="sourcePoint"/>
                        <mxPoint x="2958" y="1568" as="targetPoint"/>
                    </mxGeometry>
                </mxCell>
                <mxCell id="180" value="depsTail" style="edgeLabel;html=1;align=center;verticalAlign=middle;resizable=0;points=[];" parent="179" vertex="1" connectable="0">
                    <mxGeometry x="0.017" y="2" relative="1" as="geometry">
                        <mxPoint as="offset"/>
                    </mxGeometry>
                </mxCell>
                <mxCell id="181" value="version = 1" style="text;html=1;align=center;verticalAlign=middle;resizable=0;points=[];autosize=1;strokeColor=none;fillColor=none;" parent="1" vertex="1">
                    <mxGeometry x="2670" y="1277" width="80" height="30" as="geometry"/>
                </mxCell>
                <mxCell id="182" value="version = 0" style="text;html=1;align=center;verticalAlign=middle;resizable=0;points=[];autosize=1;strokeColor=none;fillColor=none;" parent="1" vertex="1">
                    <mxGeometry x="2690" y="1517" width="80" height="30" as="geometry"/>
                </mxCell>
                <mxCell id="183" value="&lt;span style=&quot;color: rgb(0, 0, 0);&quot;&gt;globalVersion&lt;/span&gt;= window.&lt;span style=&quot;color: rgb(0, 0, 0);&quot;&gt;globalVersion - 1 =&amp;nbsp; 0&amp;nbsp;&lt;/span&gt;" style="text;html=1;align=center;verticalAlign=middle;resizable=0;points=[];autosize=1;strokeColor=none;fillColor=none;" parent="1" vertex="1">
                    <mxGeometry x="2665" y="1307" width="270" height="30" as="geometry"/>
                </mxCell>
                <mxCell id="184" value="&lt;span style=&quot;color: rgb(0, 0, 0);&quot;&gt;globalVersion&lt;/span&gt;= window.&lt;span style=&quot;color: rgb(0, 0, 0);&quot;&gt;globalVersion&amp;nbsp; = 1&lt;/span&gt;" style="text;html=1;align=center;verticalAlign=middle;resizable=0;points=[];autosize=1;strokeColor=none;fillColor=none;" parent="1" vertex="1">
                    <mxGeometry x="2670" y="1337" width="240" height="30" as="geometry"/>
                </mxCell>
                <mxCell id="187" value="&lt;b&gt;&lt;span style=&quot;color: rgb(0, 0, 0);&quot;&gt;&amp;nbsp; &amp;nbsp;1.执行到Sub2(render函数)的时候，会进行脏检查，此时原来&lt;/span&gt;&lt;span style=&quot;text-wrap-mode: wrap; color: rgb(0, 0, 0);&quot;&gt;Dep4(&lt;/span&gt;&lt;span style=&quot;text-wrap-mode: wrap; color: rgb(0, 0, 0);&quot;&gt;doubleCount&lt;/span&gt;&lt;span style=&quot;text-wrap-mode: wrap; color: rgb(0, 0, 0);&quot;&gt;)的version = 0,&lt;/span&gt;&lt;span style=&quot;text-wrap-mode: wrap; color: rgb(0, 0, 0);&quot;&gt;link3的version = 0&lt;/span&gt;&lt;/b&gt;" style="text;html=1;align=left;verticalAlign=middle;resizable=0;points=[];autosize=1;strokeColor=none;fillColor=none;" parent="1" vertex="1">
                    <mxGeometry x="2380" y="630" width="650" height="30" as="geometry"/>
                </mxCell>
                <mxCell id="188" value="&lt;span style=&quot;color: rgb(0, 0, 0);&quot;&gt;globalVersion&lt;/span&gt;= window.&lt;span style=&quot;color: rgb(0, 0, 0);&quot;&gt;globalVersion - 1 =&amp;nbsp; 0&amp;nbsp;&lt;/span&gt;" style="text;html=1;align=center;verticalAlign=middle;resizable=0;points=[];autosize=1;strokeColor=none;fillColor=none;" parent="1" vertex="1">
                    <mxGeometry x="2260" y="603" width="270" height="30" as="geometry"/>
                </mxCell>
                <mxCell id="189" value="&lt;span style=&quot;color: rgb(0, 0, 0);&quot;&gt;globalVersion&lt;/span&gt;= window.&lt;span style=&quot;color: rgb(0, 0, 0);&quot;&gt;globalVersion&amp;nbsp; = 1&lt;/span&gt;" style="text;html=1;align=center;verticalAlign=middle;resizable=0;points=[];autosize=1;strokeColor=none;fillColor=none;" parent="1" vertex="1">
                    <mxGeometry x="2380" y="900" width="240" height="30" as="geometry"/>
                </mxCell>
                <mxCell id="190" value="&lt;span style=&quot;color: rgb(0, 0, 0);&quot;&gt;&lt;b&gt;&amp;nbsp; &amp;nbsp;2.执行refreshComputed，&lt;/b&gt;&lt;/span&gt;" style="text;html=1;align=left;verticalAlign=middle;resizable=0;points=[];autosize=1;strokeColor=none;fillColor=none;" parent="1" vertex="1">
                    <mxGeometry x="2380" y="668" width="180" height="30" as="geometry"/>
                </mxCell>
                <mxCell id="191" value="&lt;div style=&quot;color: rgb(171, 178, 191); font-family: Consolas, &amp;quot;Courier New&amp;quot;, monospace; font-size: 14px; line-height: 19px; white-space-collapse: preserve;&quot;&gt;&lt;span style=&quot;color: rgb(171, 178, 191); background-color: light-dark(#ffffff, var(--ge-dark-color, #121212));&quot;&gt;&lt;b&gt;3.首先会去判断computed.globalVersion === globalVersion是否相等，&lt;/b&gt;&lt;/span&gt;&lt;/div&gt;&lt;div style=&quot;color: rgb(171, 178, 191); font-family: Consolas, &amp;quot;Courier New&amp;quot;, monospace; font-size: 14px; line-height: 19px; white-space-collapse: preserve;&quot;&gt;&lt;span style=&quot;color: rgb(171, 178, 191); background-color: light-dark(#ffffff, var(--ge-dark-color, #121212));&quot;&gt;&lt;b&gt;如果相等就说明根本就没有响应式变量改变，那么当然就无需去重新执行计算属性回调，此时不相等。&lt;/b&gt;&lt;/span&gt;&lt;/div&gt;" style="text;html=1;align=left;verticalAlign=middle;resizable=0;points=[];autosize=1;strokeColor=none;fillColor=none;" parent="1" vertex="1">
                    <mxGeometry x="2390" y="710" width="650" height="50" as="geometry"/>
                </mxCell>
                <mxCell id="193" value="&lt;span style=&quot;color: rgb(0, 0, 0);&quot;&gt;version = 0&lt;/span&gt;" style="text;html=1;align=center;verticalAlign=middle;resizable=0;points=[];autosize=1;strokeColor=none;fillColor=none;" parent="1" vertex="1">
                    <mxGeometry x="2270" y="630" width="80" height="30" as="geometry"/>
                </mxCell>
                <mxCell id="194" value="&lt;div style=&quot;color: rgb(171, 178, 191); font-family: Consolas, &amp;quot;Courier New&amp;quot;, monospace; font-size: 14px; line-height: 19px; white-space-collapse: preserve;&quot;&gt;&lt;div style=&quot;&quot;&gt;&lt;span style=&quot;color: rgb(171, 178, 191);&quot;&gt;&lt;b&gt;4.还记得我们前面讲过每当响应式变量改变后触发set拦截是都会执行globalVersion++吗？&lt;/b&gt;&lt;/span&gt;&lt;/div&gt;&lt;div style=&quot;&quot;&gt;&lt;span style=&quot;color: rgb(171, 178, 191);&quot;&gt;&lt;b&gt;所以这里就可以通过computed.globalVersion === globalVersion判断是否有响应式变量改变，&lt;/b&gt;&lt;/span&gt;&lt;/div&gt;&lt;div style=&quot;&quot;&gt;&lt;span style=&quot;color: rgb(171, 178, 191);&quot;&gt;&lt;b&gt;如果没有说明计算属性的值肯定就没有改变。&lt;/b&gt;&lt;/span&gt;&lt;/div&gt;&lt;/div&gt;" style="text;html=1;align=left;verticalAlign=middle;resizable=0;points=[];autosize=1;strokeColor=none;fillColor=none;" parent="1" vertex="1">
                    <mxGeometry x="2390" y="770" width="640" height="70" as="geometry"/>
                </mxCell>
                <mxCell id="195" value="&lt;div style=&quot;color: rgb(171, 178, 191); font-family: Consolas, &amp;quot;Courier New&amp;quot;, monospace; font-size: 14px; line-height: 19px; white-space-collapse: preserve;&quot;&gt;&lt;div style=&quot;&quot;&gt;&lt;div style=&quot;color: rgb(171, 178, 191); line-height: 19px;&quot;&gt;&lt;span style=&quot;color: rgb(171, 178, 191); background-color: light-dark(#ffffff, var(--ge-dark-color, #121212));&quot;&gt;&lt;b style=&quot;&quot;&gt;5.接着就是执行computed.globalVersion = globalVersion将computed.globalVersion的值同步为globalVersion，&lt;/b&gt;&lt;/span&gt;&lt;/div&gt;&lt;div style=&quot;color: rgb(171, 178, 191); line-height: 19px;&quot;&gt;&lt;span style=&quot;color: rgb(171, 178, 191); background-color: light-dark(#ffffff, var(--ge-dark-color, #121212));&quot;&gt;&lt;b style=&quot;&quot;&gt;为了下次判断是否需要重新执行计算属性做准备。&lt;/b&gt;&lt;/span&gt;&lt;/div&gt;&lt;/div&gt;&lt;/div&gt;" style="text;html=1;align=left;verticalAlign=middle;resizable=0;points=[];autosize=1;strokeColor=none;fillColor=none;" parent="1" vertex="1">
                    <mxGeometry x="2390" y="845" width="780" height="50" as="geometry"/>
                </mxCell>
                <mxCell id="196" value="" style="edgeStyle=none;orthogonalLoop=1;jettySize=auto;html=1;exitX=0.407;exitY=0.567;exitDx=0;exitDy=0;exitPerimeter=0;" parent="1" source="188" edge="1">
                    <mxGeometry width="100" relative="1" as="geometry">
                        <mxPoint x="2379.8900000000003" y="628" as="sourcePoint"/>
                        <mxPoint x="2380" y="920" as="targetPoint"/>
                        <Array as="points">
                            <mxPoint x="2370" y="920"/>
                        </Array>
                    </mxGeometry>
                </mxCell>
                <mxCell id="198" value="&lt;div style=&quot;color: rgb(171, 178, 191); font-family: Consolas, &amp;quot;Courier New&amp;quot;, monospace; font-size: 14px; line-height: 19px; white-space-collapse: preserve;&quot;&gt;&lt;span style=&quot;background-color: light-dark(#ffffff, var(--ge-dark-color, #121212)); color: rgb(171, 178, 191);&quot;&gt;&lt;b&gt;6.&lt;/b&gt;&lt;/span&gt;&lt;b style=&quot;background-color: transparent;&quot;&gt;&lt;span style=&quot;background-color: transparent; font-family: Helvetica; font-size: 12px; white-space: normal; text-align: center; color: rgb(0, 0, 0);&quot;&gt;Dep4(&lt;/span&gt;&lt;span style=&quot;background-color: transparent; font-family: Helvetica; font-size: 12px; white-space: normal; text-align: center; color: rgb(0, 0, 0);&quot;&gt;doubleCount&lt;/span&gt;&lt;span style=&quot;background-color: transparent; font-family: Helvetica; font-size: 12px; white-space: normal; text-align: center; color: rgb(0, 0, 0);&quot;&gt;)&amp;nbsp;&amp;nbsp;&lt;/span&gt;&lt;/b&gt;&lt;b&gt;上面的version默认值为0，这里的dep.version === 0说明是第一次渲染计算属性。&lt;/b&gt;&lt;/div&gt;&lt;div style=&quot;color: rgb(171, 178, 191); font-family: Consolas, &amp;quot;Courier New&amp;quot;, monospace; font-size: 14px; line-height: 19px; white-space-collapse: preserve;&quot;&gt;&lt;span style=&quot;color: rgb(171, 178, 191); background-color: light-dark(#ffffff, var(--ge-dark-color, #121212));&quot;&gt;&lt;b&gt;接着就是使用hasChanged(value, computed._value)判断计算属性新的值和旧的值相比较是否有修改。&lt;/b&gt;&lt;/span&gt;&lt;/div&gt;" style="text;html=1;align=left;verticalAlign=middle;resizable=0;points=[];autosize=1;strokeColor=none;fillColor=none;" parent="1" vertex="1">
                    <mxGeometry x="2380" y="930" width="690" height="50" as="geometry"/>
                </mxCell>
                <mxCell id="199" value="&lt;div style=&quot;color: rgb(171, 178, 191); font-family: Consolas, &amp;quot;Courier New&amp;quot;, monospace; font-size: 14px; line-height: 19px; white-space-collapse: preserve;&quot;&gt;&lt;span style=&quot;color: rgb(171, 178, 191); background-color: light-dark(#ffffff, var(--ge-dark-color, #121212));&quot;&gt;&lt;b style=&quot;&quot;&gt;7.将新得到的计算属性的值更新上去，并且执行&lt;/b&gt;&lt;/span&gt;&lt;b&gt;&lt;span style=&quot;background-color: transparent; color: rgb(0, 0, 0); font-family: Helvetica; font-size: 12px; white-space: normal; text-align: center;&quot;&gt;Dep4(&lt;/span&gt;&lt;span style=&quot;background-color: transparent; font-family: Helvetica; font-size: 12px; white-space: normal; text-align: center; color: rgb(0, 0, 0);&quot;&gt;doubleCount&lt;/span&gt;&lt;span style=&quot;background-color: transparent; color: rgb(0, 0, 0); font-family: Helvetica; font-size: 12px; white-space: normal; text-align: center;&quot;&gt;)&lt;/span&gt;.version++。因为前面讲过了在外面会使用Dep4.version !== link3.version&lt;/b&gt;&lt;/div&gt;&lt;div style=&quot;color: rgb(171, 178, 191); font-family: Consolas, &amp;quot;Courier New&amp;quot;, monospace; font-size: 14px; line-height: 19px; white-space-collapse: preserve;&quot;&gt;&lt;span style=&quot;color: rgb(171, 178, 191); background-color: light-dark(#ffffff, var(--ge-dark-color, #121212));&quot;&gt;&lt;b style=&quot;&quot;&gt;判断Dep4的版本是否和link3上面的版本是否相同，如果不相等就执行render函数。&lt;/b&gt;&lt;/span&gt;&lt;/div&gt;" style="text;html=1;align=left;verticalAlign=middle;resizable=0;points=[];autosize=1;strokeColor=none;fillColor=none;" parent="1" vertex="1">
                    <mxGeometry x="2380" y="990" width="930" height="50" as="geometry"/>
                </mxCell>
                <mxCell id="200" value="&lt;span style=&quot;color: rgb(0, 0, 0);&quot;&gt;version = 1&lt;/span&gt;" style="text;html=1;align=center;verticalAlign=middle;resizable=0;points=[];autosize=1;strokeColor=none;fillColor=none;" parent="1" vertex="1">
                    <mxGeometry x="2270" y="710" width="80" height="30" as="geometry"/>
                </mxCell>
                <mxCell id="201" value="" style="shape=flexArrow;endArrow=classic;html=1;" parent="1" edge="1">
                    <mxGeometry width="50" height="50" relative="1" as="geometry">
                        <mxPoint x="2310.29" y="654.07" as="sourcePoint"/>
                        <mxPoint x="2309.71" y="710" as="targetPoint"/>
                    </mxGeometry>
                </mxCell>
                <mxCell id="203" value="&lt;span style=&quot;color: rgb(63, 63, 63);&quot;&gt;第二次渲染的时候flag的值是false&lt;/span&gt;" style="text;html=1;align=center;verticalAlign=middle;resizable=0;points=[];autosize=1;strokeColor=none;fillColor=none;" parent="1" vertex="1">
                    <mxGeometry x="610" y="1190" width="200" height="30" as="geometry"/>
                </mxCell>
                <mxCell id="204" style="edgeStyle=none;html=1;exitX=0.75;exitY=1;exitDx=0;exitDy=0;entryX=0.75;entryY=0;entryDx=0;entryDy=0;" parent="1" source="206" target="209" edge="1">
                    <mxGeometry relative="1" as="geometry"/>
                </mxCell>
                <mxCell id="205" value="subs" style="edgeLabel;html=1;align=center;verticalAlign=middle;resizable=0;points=[];" parent="204" vertex="1" connectable="0">
                    <mxGeometry x="-0.0918" y="-2" relative="1" as="geometry">
                        <mxPoint as="offset"/>
                    </mxGeometry>
                </mxCell>
                <mxCell id="206" value="Dep3(count2)" style="rounded=0;whiteSpace=wrap;html=1;" parent="1" vertex="1">
                    <mxGeometry x="1830" y="1267" width="120" height="60" as="geometry"/>
                </mxCell>
                <mxCell id="207" style="edgeStyle=none;html=1;entryX=0.25;entryY=1;entryDx=0;entryDy=0;exitX=0.25;exitY=0;exitDx=0;exitDy=0;" parent="1" source="209" target="206" edge="1">
                    <mxGeometry relative="1" as="geometry">
                        <mxPoint x="1860" y="1497" as="sourcePoint"/>
                    </mxGeometry>
                </mxCell>
                <mxCell id="208" value="dep" style="edgeLabel;html=1;align=center;verticalAlign=middle;resizable=0;points=[];" parent="207" vertex="1" connectable="0">
                    <mxGeometry x="0.0833" y="1" relative="1" as="geometry">
                        <mxPoint as="offset"/>
                    </mxGeometry>
                </mxCell>
                <mxCell id="217" style="edgeStyle=none;html=1;exitX=0.75;exitY=1;exitDx=0;exitDy=0;entryX=0.25;entryY=1;entryDx=0;entryDy=0;" parent="1" source="209" target="143" edge="1">
                    <mxGeometry relative="1" as="geometry">
                        <mxPoint x="940" y="1740" as="targetPoint"/>
                        <Array as="points">
                            <mxPoint x="1920" y="1680"/>
                            <mxPoint x="770" y="1680"/>
                        </Array>
                    </mxGeometry>
                </mxCell>
                <mxCell id="218" value="&lt;span style=&quot;color: rgb(0, 0, 0);&quot;&gt;sub&lt;/span&gt;" style="edgeLabel;html=1;align=center;verticalAlign=middle;resizable=0;points=[];" parent="217" vertex="1" connectable="0">
                    <mxGeometry x="-0.1312" y="-1" relative="1" as="geometry">
                        <mxPoint as="offset"/>
                    </mxGeometry>
                </mxCell>
                <mxCell id="209" value="&lt;span style=&quot;color: rgb(0, 0, 0);&quot;&gt;link4&lt;/span&gt;" style="rounded=0;whiteSpace=wrap;html=1;" parent="1" vertex="1">
                    <mxGeometry x="1830" y="1507" width="120" height="60" as="geometry"/>
                </mxCell>
                <mxCell id="210" value="version:0" style="text;html=1;align=center;verticalAlign=middle;resizable=0;points=[];autosize=1;strokeColor=none;fillColor=none;" parent="1" vertex="1">
                    <mxGeometry x="1950" y="1282" width="70" height="30" as="geometry"/>
                </mxCell>
                <mxCell id="211" value="version:0" style="text;html=1;align=center;verticalAlign=middle;resizable=0;points=[];autosize=1;strokeColor=none;fillColor=none;" parent="1" vertex="1">
                    <mxGeometry x="1940" y="1477" width="70" height="30" as="geometry"/>
                </mxCell>
                <mxCell id="212" value="&lt;div style=&quot;color: rgb(171, 178, 191); font-family: Consolas, &amp;quot;Courier New&amp;quot;, monospace; font-size: 14px; line-height: 19px; white-space-collapse: preserve;&quot;&gt;&lt;span style=&quot;color: rgb(171, 178, 191); background-color: light-dark(#ffffff, var(--ge-dark-color, #121212));&quot;&gt;&lt;b&gt;&amp;nbsp;当flag的值设置为false后，重新执行计算属性doubleCount中的回调函数时，&lt;/b&gt;&lt;/span&gt;&lt;/div&gt;&lt;div style=&quot;color: rgb(171, 178, 191); font-family: Consolas, &amp;quot;Courier New&amp;quot;, monospace; font-size: 14px; line-height: 19px; white-space-collapse: preserve;&quot;&gt;&lt;span style=&quot;color: rgb(171, 178, 191); background-color: light-dark(#ffffff, var(--ge-dark-color, #121212));&quot;&gt;&lt;b&gt;就会对回调函数中的所有响应式变量进行读操作。&lt;/b&gt;&lt;/span&gt;&lt;/div&gt;&lt;div style=&quot;color: rgb(171, 178, 191); font-family: Consolas, &amp;quot;Courier New&amp;quot;, monospace; font-size: 14px; line-height: 19px; white-space-collapse: preserve;&quot;&gt;&lt;span style=&quot;color: rgb(171, 178, 191); background-color: light-dark(#ffffff, var(--ge-dark-color, #121212));&quot;&gt;&lt;b&gt;从而再次触发响应式变量的get拦截，然后执行track方法进行依赖收集。&lt;/b&gt;&lt;/span&gt;&lt;/div&gt;&lt;div style=&quot;color: rgb(171, 178, 191); font-family: Consolas, &amp;quot;Courier New&amp;quot;, monospace; font-size: 14px; line-height: 19px; white-space-collapse: preserve;&quot;&gt;&lt;span style=&quot;color: rgb(171, 178, 191); background-color: light-dark(#ffffff, var(--ge-dark-color, #121212));&quot;&gt;&lt;b&gt;注意此时新收集了一个响应式变量count2。、&lt;/b&gt;&lt;/span&gt;&lt;/div&gt;" style="text;html=1;align=left;verticalAlign=middle;resizable=0;points=[];autosize=1;strokeColor=none;fillColor=none;" parent="1" vertex="1">
                    <mxGeometry x="115" y="1367" width="520" height="90" as="geometry"/>
                </mxCell>
                <mxCell id="213" style="edgeStyle=none;html=1;exitX=1;exitY=0.75;exitDx=0;exitDy=0;entryX=0;entryY=0.75;entryDx=0;entryDy=0;" parent="1" edge="1">
                    <mxGeometry relative="1" as="geometry">
                        <mxPoint x="1570" y="1551.44" as="sourcePoint"/>
                        <mxPoint x="1830" y="1551.44" as="targetPoint"/>
                    </mxGeometry>
                </mxCell>
                <mxCell id="214" value="nextDep" style="edgeLabel;html=1;align=center;verticalAlign=middle;resizable=0;points=[];" parent="213" vertex="1" connectable="0">
                    <mxGeometry x="0.0244" y="-1" relative="1" as="geometry">
                        <mxPoint as="offset"/>
                    </mxGeometry>
                </mxCell>
                <mxCell id="215" style="edgeStyle=none;html=1;exitX=0;exitY=0.25;exitDx=0;exitDy=0;entryX=1;entryY=0.25;entryDx=0;entryDy=0;" parent="1" edge="1">
                    <mxGeometry relative="1" as="geometry">
                        <mxPoint x="1830" y="1521.44" as="sourcePoint"/>
                        <mxPoint x="1570" y="1521.44" as="targetPoint"/>
                    </mxGeometry>
                </mxCell>
                <mxCell id="216" value="prevDep" style="edgeLabel;html=1;align=center;verticalAlign=middle;resizable=0;points=[];" parent="215" vertex="1" connectable="0">
                    <mxGeometry x="-0.0378" y="-3" relative="1" as="geometry">
                        <mxPoint as="offset"/>
                    </mxGeometry>
                </mxCell>
                <mxCell id="219" value="&lt;div style=&quot;font-family: Consolas, &amp;quot;Courier New&amp;quot;, monospace; font-size: 14px; line-height: 19px; white-space-collapse: preserve;&quot;&gt;&lt;span style=&quot;background-color: light-dark(#ffffff, var(--ge-dark-color, #121212));&quot;&gt;&lt;font style=&quot;color: rgb(0, 0, 0);&quot;&gt;&lt;b&gt;从上图中可以看到虽然计算属性虽然不再依赖count1变量，但是count1变量变量对应的&lt;/b&gt;&lt;/font&gt;&lt;/span&gt;&lt;/div&gt;&lt;div style=&quot;font-family: Consolas, &amp;quot;Courier New&amp;quot;, monospace; font-size: 14px; line-height: 19px; white-space-collapse: preserve;&quot;&gt;&lt;span style=&quot;background-color: light-dark(#ffffff, var(--ge-dark-color, #121212));&quot;&gt;&lt;font style=&quot;color: rgb(0, 0, 0);&quot;&gt;&lt;b&gt;Link2节点还在队列的连接上。&lt;/b&gt;&lt;/font&gt;&lt;/span&gt;&lt;b style=&quot;background-color: light-dark(#ffffff, var(--ge-dark-color, #121212));&quot;&gt;我们在prepareDeps方法中将计算属性依赖的所有Link节点&lt;/b&gt;&lt;/div&gt;&lt;div style=&quot;font-family: Consolas, &amp;quot;Courier New&amp;quot;, monospace; font-size: 14px; line-height: 19px; white-space-collapse: preserve;&quot;&gt;&lt;b style=&quot;background-color: light-dark(#ffffff, var(--ge-dark-color, #121212));&quot;&gt;的version属性都设置为-1。&lt;/b&gt;&lt;/div&gt;" style="text;html=1;align=left;verticalAlign=middle;resizable=0;points=[];autosize=1;strokeColor=none;fillColor=none;" parent="1" vertex="1">
                    <mxGeometry x="115" y="1265" width="580" height="70" as="geometry"/>
                </mxCell>
                <mxCell id="222" value="" style="edgeStyle=none;html=1;entryX=-0.031;entryY=0.553;entryDx=0;entryDy=0;entryPerimeter=0;" parent="1" source="165" target="221" edge="1">
                    <mxGeometry relative="1" as="geometry">
                        <mxPoint x="1230" y="1430" as="sourcePoint"/>
                    </mxGeometry>
                </mxCell>
                <mxCell id="221" value="version:-1" style="text;html=1;align=center;verticalAlign=middle;resizable=0;points=[];autosize=1;strokeColor=none;fillColor=none;" parent="1" vertex="1">
                    <mxGeometry x="1295" y="1477" width="80" height="30" as="geometry"/>
                </mxCell>
                <mxCell id="223" value="" style="edgeStyle=none;html=1;entryX=-0.031;entryY=0.553;entryDx=0;entryDy=0;entryPerimeter=0;" parent="1" target="224" edge="1">
                    <mxGeometry relative="1" as="geometry">
                        <mxPoint x="1620" y="1496" as="sourcePoint"/>
                    </mxGeometry>
                </mxCell>
                <mxCell id="224" value="version:-1" style="text;html=1;align=center;verticalAlign=middle;resizable=0;points=[];autosize=1;strokeColor=none;fillColor=none;" parent="1" vertex="1">
                    <mxGeometry x="1645" y="1480" width="80" height="30" as="geometry"/>
                </mxCell>
                <mxCell id="227" value="&lt;div style=&quot;font-family: Consolas, &amp;quot;Courier New&amp;quot;, monospace; font-size: 14px; line-height: 19px; white-space-collapse: preserve;&quot;&gt;&lt;span style=&quot;background-color: light-dark(#ffffff, var(--ge-dark-color, #121212));&quot;&gt;&lt;font style=&quot;color: rgb(0, 0, 0);&quot;&gt;&lt;b&gt;计算属性最新依赖的响应式变量才会触发track方法进行依赖收集，&lt;/b&gt;&lt;/font&gt;&lt;/span&gt;&lt;/div&gt;&lt;div style=&quot;font-family: Consolas, &amp;quot;Courier New&amp;quot;, monospace; font-size: 14px; line-height: 19px; white-space-collapse: preserve;&quot;&gt;&lt;b style=&quot;background-color: light-dark(#ffffff, var(--ge-dark-color, #121212));&quot;&gt;从而将对应的link.version从-1更新为dep.version。&lt;/b&gt;&lt;/div&gt;" style="text;html=1;align=center;verticalAlign=middle;resizable=0;points=[];autosize=1;strokeColor=none;fillColor=none;" parent="1" vertex="1">
                    <mxGeometry x="110" y="1480" width="440" height="50" as="geometry"/>
                </mxCell>
                <mxCell id="231" value="&lt;p style=&quot;text-align: justify; text-indent: 0em; font-size: 15px; letter-spacing: 0.04em; padding-top: 8px; padding-bottom: 8px; color: rgb(89, 89, 89);&quot; data-tool=&quot;mdnice编辑器&quot;&gt;&lt;br&gt;&lt;/p&gt;" style="text;html=1;align=center;verticalAlign=bottom;resizable=0;points=[];autosize=1;strokeColor=none;fillColor=none;labelPosition=center;verticalLabelPosition=top;" parent="1" vertex="1">
                    <mxGeometry x="460" y="2030" width="20" height="80" as="geometry"/>
                </mxCell>
                <mxCell id="232" value="Dep1(flag)" style="rounded=0;whiteSpace=wrap;html=1;" parent="1" vertex="1">
                    <mxGeometry x="1080" y="1870" width="120" height="60" as="geometry"/>
                </mxCell>
                <mxCell id="235" value="Dep2(count1)" style="rounded=0;whiteSpace=wrap;html=1;" parent="1" vertex="1">
                    <mxGeometry x="1460" y="1870" width="120" height="60" as="geometry"/>
                </mxCell>
                <mxCell id="236" style="edgeStyle=none;html=1;exitX=1;exitY=0.75;exitDx=0;exitDy=0;entryX=0;entryY=0.75;entryDx=0;entryDy=0;" parent="1" source="240" target="250" edge="1">
                    <mxGeometry relative="1" as="geometry"/>
                </mxCell>
                <mxCell id="237" value="deps" style="edgeLabel;html=1;align=center;verticalAlign=middle;resizable=0;points=[];" parent="236" vertex="1" connectable="0">
                    <mxGeometry x="0.0175" relative="1" as="geometry">
                        <mxPoint as="offset"/>
                    </mxGeometry>
                </mxCell>
                <mxCell id="238" style="edgeStyle=none;html=1;exitX=0.657;exitY=0.955;exitDx=0;exitDy=0;entryX=0.25;entryY=1;entryDx=0;entryDy=0;exitPerimeter=0;" parent="1" source="240" target="290" edge="1">
                    <mxGeometry relative="1" as="geometry">
                        <Array as="points">
                            <mxPoint x="829" y="2230"/>
                            <mxPoint x="1140" y="2230"/>
                            <mxPoint x="1870" y="2230"/>
                        </Array>
                    </mxGeometry>
                </mxCell>
                <mxCell id="239" value="depsTail" style="edgeLabel;html=1;align=center;verticalAlign=middle;resizable=0;points=[];" parent="238" vertex="1" connectable="0">
                    <mxGeometry x="0.017" y="2" relative="1" as="geometry">
                        <mxPoint as="offset"/>
                    </mxGeometry>
                </mxCell>
                <mxCell id="240" value="Sub1(doubleCount)" style="rounded=0;whiteSpace=wrap;html=1;" parent="1" vertex="1">
                    <mxGeometry x="750" y="2110" width="120" height="60" as="geometry"/>
                </mxCell>
                <mxCell id="241" value="" style="endArrow=classic;html=1;" parent="1" edge="1">
                    <mxGeometry width="50" height="50" relative="1" as="geometry">
                        <mxPoint x="720" y="1850" as="sourcePoint"/>
                        <mxPoint x="2850" y="1850" as="targetPoint"/>
                    </mxGeometry>
                </mxCell>
                <mxCell id="242" value="X轴&amp;nbsp; dep" style="text;html=1;align=center;verticalAlign=middle;resizable=0;points=[];autosize=1;strokeColor=none;fillColor=none;" parent="1" vertex="1">
                    <mxGeometry x="1175" y="1810" width="70" height="30" as="geometry"/>
                </mxCell>
                <mxCell id="243" value="" style="endArrow=classic;html=1;" parent="1" edge="1">
                    <mxGeometry width="50" height="50" relative="1" as="geometry">
                        <mxPoint x="720" y="1850" as="sourcePoint"/>
                        <mxPoint x="720" y="2280" as="targetPoint"/>
                    </mxGeometry>
                </mxCell>
                <mxCell id="244" style="edgeStyle=none;html=1;exitX=0.5;exitY=0;exitDx=0;exitDy=0;entryX=0.5;entryY=1;entryDx=0;entryDy=0;" parent="1" edge="1">
                    <mxGeometry relative="1" as="geometry">
                        <mxPoint x="1120" y="2110" as="sourcePoint"/>
                        <mxPoint x="1120" y="1930" as="targetPoint"/>
                    </mxGeometry>
                </mxCell>
                <mxCell id="245" value="&lt;span style=&quot;color: rgb(0, 0, 0); font-size: 12px; background-color: rgb(251, 251, 251);&quot;&gt;dep&lt;/span&gt;" style="edgeLabel;html=1;align=center;verticalAlign=middle;resizable=0;points=[];" parent="244" vertex="1" connectable="0">
                    <mxGeometry x="0.0918" y="2" relative="1" as="geometry">
                        <mxPoint as="offset"/>
                    </mxGeometry>
                </mxCell>
                <mxCell id="246" style="edgeStyle=none;html=1;exitX=0;exitY=0.25;exitDx=0;exitDy=0;entryX=1;entryY=0.25;entryDx=0;entryDy=0;" parent="1" source="250" target="240" edge="1">
                    <mxGeometry relative="1" as="geometry"/>
                </mxCell>
                <mxCell id="247" value="&lt;span style=&quot;color: rgb(0, 0, 0); font-size: 12px; background-color: rgb(251, 251, 251);&quot;&gt;sub&lt;/span&gt;" style="edgeLabel;html=1;align=center;verticalAlign=middle;resizable=0;points=[];" parent="246" vertex="1" connectable="0">
                    <mxGeometry x="-0.1079" y="-2" relative="1" as="geometry">
                        <mxPoint as="offset"/>
                    </mxGeometry>
                </mxCell>
                <mxCell id="250" value="link1" style="rounded=0;whiteSpace=wrap;html=1;" parent="1" vertex="1">
                    <mxGeometry x="1080" y="2110" width="120" height="60" as="geometry"/>
                </mxCell>
                <mxCell id="258" style="edgeStyle=none;html=1;exitX=0.75;exitY=1;exitDx=0;exitDy=0;entryX=0.75;entryY=0;entryDx=0;entryDy=0;" parent="1" edge="1">
                    <mxGeometry relative="1" as="geometry">
                        <mxPoint x="1170" y="1930" as="sourcePoint"/>
                        <mxPoint x="1170" y="2110" as="targetPoint"/>
                    </mxGeometry>
                </mxCell>
                <mxCell id="259" value="subs" style="edgeLabel;html=1;align=center;verticalAlign=middle;resizable=0;points=[];" parent="258" vertex="1" connectable="0">
                    <mxGeometry x="-0.0918" y="-2" relative="1" as="geometry">
                        <mxPoint as="offset"/>
                    </mxGeometry>
                </mxCell>
                <mxCell id="260" value="version:0" style="text;html=1;align=center;verticalAlign=middle;resizable=0;points=[];autosize=1;strokeColor=none;fillColor=none;" parent="1" vertex="1">
                    <mxGeometry x="1200" y="1885" width="70" height="30" as="geometry"/>
                </mxCell>
                <mxCell id="261" value="version:0" style="text;html=1;align=center;verticalAlign=middle;resizable=0;points=[];autosize=1;strokeColor=none;fillColor=none;" parent="1" vertex="1">
                    <mxGeometry x="1580" y="1885" width="70" height="30" as="geometry"/>
                </mxCell>
                <mxCell id="262" value="version:0" style="text;html=1;align=center;verticalAlign=middle;resizable=0;points=[];autosize=1;strokeColor=none;fillColor=none;" parent="1" vertex="1">
                    <mxGeometry x="1210" y="2077" width="70" height="30" as="geometry"/>
                </mxCell>
                <mxCell id="264" value="window.globalVersion=1" style="text;html=1;align=center;verticalAlign=middle;resizable=0;points=[];autosize=1;strokeColor=none;fillColor=none;" parent="1" vertex="1">
                    <mxGeometry x="1570" y="1800" width="150" height="30" as="geometry"/>
                </mxCell>
                <mxCell id="265" value="Dep2(&lt;span style=&quot;color: rgb(0, 0, 0);&quot;&gt;doubleCount&lt;/span&gt;)" style="rounded=0;whiteSpace=wrap;html=1;" parent="1" vertex="1">
                    <mxGeometry x="2560" y="1870" width="120" height="60" as="geometry"/>
                </mxCell>
                <mxCell id="266" value="Sub2(render函数)" style="rounded=0;whiteSpace=wrap;html=1;" parent="1" vertex="1">
                    <mxGeometry x="2240" y="2107" width="120" height="60" as="geometry"/>
                </mxCell>
                <mxCell id="267" value="link3" style="rounded=0;whiteSpace=wrap;html=1;" parent="1" vertex="1">
                    <mxGeometry x="2570" y="2107" width="120" height="60" as="geometry"/>
                </mxCell>
                <mxCell id="268" style="edgeStyle=none;html=1;exitX=0.5;exitY=0;exitDx=0;exitDy=0;entryX=0.5;entryY=1;entryDx=0;entryDy=0;" parent="1" edge="1">
                    <mxGeometry relative="1" as="geometry">
                        <mxPoint x="2600" y="2110" as="sourcePoint"/>
                        <mxPoint x="2600" y="1930" as="targetPoint"/>
                    </mxGeometry>
                </mxCell>
                <mxCell id="269" value="&lt;span style=&quot;color: rgb(0, 0, 0); font-size: 12px; background-color: rgb(251, 251, 251);&quot;&gt;dep&lt;/span&gt;" style="edgeLabel;html=1;align=center;verticalAlign=middle;resizable=0;points=[];" parent="268" vertex="1" connectable="0">
                    <mxGeometry x="0.0918" y="2" relative="1" as="geometry">
                        <mxPoint as="offset"/>
                    </mxGeometry>
                </mxCell>
                <mxCell id="270" style="edgeStyle=none;html=1;exitX=0.75;exitY=1;exitDx=0;exitDy=0;entryX=0.75;entryY=0;entryDx=0;entryDy=0;" parent="1" edge="1">
                    <mxGeometry relative="1" as="geometry">
                        <mxPoint x="2650" y="1930" as="sourcePoint"/>
                        <mxPoint x="2650" y="2110" as="targetPoint"/>
                    </mxGeometry>
                </mxCell>
                <mxCell id="271" value="subs" style="edgeLabel;html=1;align=center;verticalAlign=middle;resizable=0;points=[];" parent="270" vertex="1" connectable="0">
                    <mxGeometry x="-0.0918" y="-2" relative="1" as="geometry">
                        <mxPoint as="offset"/>
                    </mxGeometry>
                </mxCell>
                <mxCell id="272" style="edgeStyle=none;html=1;exitX=1;exitY=0.75;exitDx=0;exitDy=0;entryX=0;entryY=0.75;entryDx=0;entryDy=0;" parent="1" edge="1">
                    <mxGeometry relative="1" as="geometry">
                        <mxPoint x="2360" y="2151.4700000000003" as="sourcePoint"/>
                        <mxPoint x="2570" y="2151.4700000000003" as="targetPoint"/>
                    </mxGeometry>
                </mxCell>
                <mxCell id="273" value="deps" style="edgeLabel;html=1;align=center;verticalAlign=middle;resizable=0;points=[];" parent="272" vertex="1" connectable="0">
                    <mxGeometry x="0.0175" relative="1" as="geometry">
                        <mxPoint as="offset"/>
                    </mxGeometry>
                </mxCell>
                <mxCell id="274" style="edgeStyle=none;html=1;exitX=0;exitY=0.25;exitDx=0;exitDy=0;entryX=1;entryY=0.25;entryDx=0;entryDy=0;" parent="1" edge="1">
                    <mxGeometry relative="1" as="geometry">
                        <mxPoint x="2570" y="2121.4700000000003" as="sourcePoint"/>
                        <mxPoint x="2360" y="2121.4700000000003" as="targetPoint"/>
                    </mxGeometry>
                </mxCell>
                <mxCell id="275" value="&lt;span style=&quot;color: rgb(0, 0, 0); font-size: 12px; background-color: rgb(251, 251, 251);&quot;&gt;sub&lt;/span&gt;" style="edgeLabel;html=1;align=center;verticalAlign=middle;resizable=0;points=[];" parent="274" vertex="1" connectable="0">
                    <mxGeometry x="-0.1079" y="-2" relative="1" as="geometry">
                        <mxPoint as="offset"/>
                    </mxGeometry>
                </mxCell>
                <mxCell id="276" style="edgeStyle=none;html=1;exitX=0.657;exitY=0.955;exitDx=0;exitDy=0;entryX=0.5;entryY=1;entryDx=0;entryDy=0;exitPerimeter=0;" parent="1" target="267" edge="1">
                    <mxGeometry relative="1" as="geometry">
                        <Array as="points">
                            <mxPoint x="2300" y="2230"/>
                            <mxPoint x="2611" y="2230"/>
                            <mxPoint x="2630" y="2227"/>
                        </Array>
                        <mxPoint x="2300" y="2167" as="sourcePoint"/>
                        <mxPoint x="2968" y="2168" as="targetPoint"/>
                    </mxGeometry>
                </mxCell>
                <mxCell id="277" value="depsTail" style="edgeLabel;html=1;align=center;verticalAlign=middle;resizable=0;points=[];" parent="276" vertex="1" connectable="0">
                    <mxGeometry x="0.017" y="2" relative="1" as="geometry">
                        <mxPoint as="offset"/>
                    </mxGeometry>
                </mxCell>
                <mxCell id="278" value="version = 1" style="text;html=1;align=center;verticalAlign=middle;resizable=0;points=[];autosize=1;strokeColor=none;fillColor=none;" parent="1" vertex="1">
                    <mxGeometry x="2680" y="1877" width="80" height="30" as="geometry"/>
                </mxCell>
                <mxCell id="279" value="version = 0" style="text;html=1;align=center;verticalAlign=middle;resizable=0;points=[];autosize=1;strokeColor=none;fillColor=none;" parent="1" vertex="1">
                    <mxGeometry x="2700" y="2117" width="80" height="30" as="geometry"/>
                </mxCell>
                <mxCell id="280" value="&lt;span style=&quot;color: rgb(0, 0, 0);&quot;&gt;globalVersion&lt;/span&gt;= window.&lt;span style=&quot;color: rgb(0, 0, 0);&quot;&gt;globalVersion - 1 =&amp;nbsp; 0&amp;nbsp;&lt;/span&gt;" style="text;html=1;align=center;verticalAlign=middle;resizable=0;points=[];autosize=1;strokeColor=none;fillColor=none;" parent="1" vertex="1">
                    <mxGeometry x="2675" y="1907" width="270" height="30" as="geometry"/>
                </mxCell>
                <mxCell id="281" value="&lt;span style=&quot;color: rgb(0, 0, 0);&quot;&gt;globalVersion&lt;/span&gt;= window.&lt;span style=&quot;color: rgb(0, 0, 0);&quot;&gt;globalVersion&amp;nbsp; = 1&lt;/span&gt;" style="text;html=1;align=center;verticalAlign=middle;resizable=0;points=[];autosize=1;strokeColor=none;fillColor=none;" parent="1" vertex="1">
                    <mxGeometry x="2680" y="1937" width="240" height="30" as="geometry"/>
                </mxCell>
                <mxCell id="283" style="edgeStyle=none;html=1;exitX=0.75;exitY=1;exitDx=0;exitDy=0;entryX=0.75;entryY=0;entryDx=0;entryDy=0;" parent="1" source="285" target="290" edge="1">
                    <mxGeometry relative="1" as="geometry"/>
                </mxCell>
                <mxCell id="284" value="subs" style="edgeLabel;html=1;align=center;verticalAlign=middle;resizable=0;points=[];" parent="283" vertex="1" connectable="0">
                    <mxGeometry x="-0.0918" y="-2" relative="1" as="geometry">
                        <mxPoint as="offset"/>
                    </mxGeometry>
                </mxCell>
                <mxCell id="285" value="Dep3(count2)" style="rounded=0;whiteSpace=wrap;html=1;" parent="1" vertex="1">
                    <mxGeometry x="1840" y="1867" width="120" height="60" as="geometry"/>
                </mxCell>
                <mxCell id="286" style="edgeStyle=none;html=1;entryX=0.25;entryY=1;entryDx=0;entryDy=0;exitX=0.25;exitY=0;exitDx=0;exitDy=0;" parent="1" source="290" target="285" edge="1">
                    <mxGeometry relative="1" as="geometry">
                        <mxPoint x="1870" y="2097" as="sourcePoint"/>
                    </mxGeometry>
                </mxCell>
                <mxCell id="287" value="dep" style="edgeLabel;html=1;align=center;verticalAlign=middle;resizable=0;points=[];" parent="286" vertex="1" connectable="0">
                    <mxGeometry x="0.0833" y="1" relative="1" as="geometry">
                        <mxPoint as="offset"/>
                    </mxGeometry>
                </mxCell>
                <mxCell id="288" style="edgeStyle=none;html=1;exitX=0.75;exitY=1;exitDx=0;exitDy=0;entryX=0.25;entryY=1;entryDx=0;entryDy=0;" parent="1" source="290" target="240" edge="1">
                    <mxGeometry relative="1" as="geometry">
                        <mxPoint x="950" y="2340" as="targetPoint"/>
                        <Array as="points">
                            <mxPoint x="1930" y="2280"/>
                            <mxPoint x="780" y="2280"/>
                        </Array>
                    </mxGeometry>
                </mxCell>
                <mxCell id="289" value="&lt;span style=&quot;color: rgb(0, 0, 0);&quot;&gt;sub&lt;/span&gt;" style="edgeLabel;html=1;align=center;verticalAlign=middle;resizable=0;points=[];" parent="288" vertex="1" connectable="0">
                    <mxGeometry x="-0.1312" y="-1" relative="1" as="geometry">
                        <mxPoint as="offset"/>
                    </mxGeometry>
                </mxCell>
                <mxCell id="290" value="&lt;span style=&quot;color: rgb(0, 0, 0);&quot;&gt;link4&lt;/span&gt;" style="rounded=0;whiteSpace=wrap;html=1;" parent="1" vertex="1">
                    <mxGeometry x="1840" y="2110" width="120" height="60" as="geometry"/>
                </mxCell>
                <mxCell id="291" value="version:0" style="text;html=1;align=center;verticalAlign=middle;resizable=0;points=[];autosize=1;strokeColor=none;fillColor=none;" parent="1" vertex="1">
                    <mxGeometry x="1960" y="1882" width="70" height="30" as="geometry"/>
                </mxCell>
                <mxCell id="292" value="version:0" style="text;html=1;align=center;verticalAlign=middle;resizable=0;points=[];autosize=1;strokeColor=none;fillColor=none;" parent="1" vertex="1">
                    <mxGeometry x="1950" y="2077" width="70" height="30" as="geometry"/>
                </mxCell>
                <mxCell id="294" style="edgeStyle=none;html=1;exitX=1;exitY=0.75;exitDx=0;exitDy=0;entryX=0;entryY=0.75;entryDx=0;entryDy=0;" parent="1" source="250" edge="1">
                    <mxGeometry relative="1" as="geometry">
                        <mxPoint x="1580" y="2151.44" as="sourcePoint"/>
                        <mxPoint x="1840" y="2151.44" as="targetPoint"/>
                    </mxGeometry>
                </mxCell>
                <mxCell id="295" value="nextDep" style="edgeLabel;html=1;align=center;verticalAlign=middle;resizable=0;points=[];" parent="294" vertex="1" connectable="0">
                    <mxGeometry x="0.0244" y="-1" relative="1" as="geometry">
                        <mxPoint as="offset"/>
                    </mxGeometry>
                </mxCell>
                <mxCell id="296" style="edgeStyle=none;html=1;exitX=0;exitY=0.25;exitDx=0;exitDy=0;entryX=1;entryY=0.25;entryDx=0;entryDy=0;" parent="1" target="250" edge="1">
                    <mxGeometry relative="1" as="geometry">
                        <mxPoint x="1840" y="2121.44" as="sourcePoint"/>
                        <mxPoint x="1580" y="2121.44" as="targetPoint"/>
                    </mxGeometry>
                </mxCell>
                <mxCell id="297" value="prevDep" style="edgeLabel;html=1;align=center;verticalAlign=middle;resizable=0;points=[];" parent="296" vertex="1" connectable="0">
                    <mxGeometry x="-0.0378" y="-3" relative="1" as="geometry">
                        <mxPoint as="offset"/>
                    </mxGeometry>
                </mxCell>
                <mxCell id="299" value="" style="edgeStyle=none;html=1;entryX=-0.031;entryY=0.553;entryDx=0;entryDy=0;entryPerimeter=0;" parent="1" source="262" target="300" edge="1">
                    <mxGeometry relative="1" as="geometry">
                        <mxPoint x="1240" y="2030" as="sourcePoint"/>
                    </mxGeometry>
                </mxCell>
                <mxCell id="300" value="version:-1" style="text;html=1;align=center;verticalAlign=middle;resizable=0;points=[];autosize=1;strokeColor=none;fillColor=none;" parent="1" vertex="1">
                    <mxGeometry x="1305" y="2077" width="80" height="30" as="geometry"/>
                </mxCell>
                <mxCell id="304" value="" style="edgeStyle=none;html=1;entryX=-0.031;entryY=0.553;entryDx=0;entryDy=0;entryPerimeter=0;" parent="1" target="305" edge="1">
                    <mxGeometry relative="1" as="geometry">
                        <mxPoint x="1370" y="2093" as="sourcePoint"/>
                    </mxGeometry>
                </mxCell>
                <mxCell id="305" value="version:0" style="text;html=1;align=center;verticalAlign=middle;resizable=0;points=[];autosize=1;strokeColor=none;fillColor=none;" parent="1" vertex="1">
                    <mxGeometry x="1400" y="2077" width="70" height="30" as="geometry"/>
                </mxCell>
                <mxCell id="306" value="&lt;div style=&quot;font-family: Consolas, &amp;quot;Courier New&amp;quot;, monospace; font-size: 14px; line-height: 19px; white-space-collapse: preserve;&quot;&gt;&lt;div style=&quot;&quot;&gt;&lt;span&gt;&lt;font style=&quot;color: rgb(255, 255, 255);&quot;&gt;&lt;b&gt;而变量count1现在已经不会触发track方法了，所以变量count1对应的link.version的值还是-1。&lt;/b&gt;&lt;/font&gt;&lt;/span&gt;&lt;/div&gt;&lt;div style=&quot;&quot;&gt;&lt;span style=&quot;color: rgb(171, 178, 191);&quot;&gt;&lt;font style=&quot;color: rgb(255, 255, 255);&quot;&gt;&lt;b&gt;最后就是执行cleanupDeps函数将link.version的值还是-1的响应式变量（也就是不再使用的count1变量）&lt;/b&gt;&lt;/font&gt;&lt;/span&gt;&lt;/div&gt;&lt;div style=&quot;&quot;&gt;&lt;span style=&quot;color: rgb(171, 178, 191);&quot;&gt;&lt;font style=&quot;color: rgb(255, 255, 255);&quot;&gt;&lt;b&gt;对应的Link节点，从双向链表中给干掉。&lt;/b&gt;&lt;/font&gt;&lt;/span&gt;&lt;/div&gt;&lt;/div&gt;" style="text;html=1;align=left;verticalAlign=middle;resizable=0;points=[];autosize=1;strokeColor=none;fillColor=none;" parent="1" vertex="1">
                    <mxGeometry x="25" y="2010" width="700" height="70" as="geometry"/>
                </mxCell>
            </root>
        </mxGraphModel>
    </diagram>
</mxfile>